<svg
  preserveAspectRatio="xMidYMid meet"
  width="100%"
  height="100%"
  overflow="visible"
  style="display: block"
  viewBox="0 0 32 32"
  fill="none"
  xmlns="http://www.w3.org/2000/svg"
>
  <g transform="translate(3 1)">
    <path
      d="M14.96 4H14V1C14 0.45 13.55 0 13 0C12.45 0 12 0.45 12 1V4H11.04C6.63 4 3.04 7.59 3.04 12V23.24C3.04 23.93 3.28 24.61 3.72 25.14L7.63 28.91C8.2 29.58 9.03 29.96 9.91 29.96H16.03C16.9 29.96 17.72 29.59 18.29 28.93L22.19 25.24L22.27 25.15C22.72 24.61 22.96 23.93 22.96 23.23V12C22.96 7.59 19.37 4 14.96 4ZM5.24 23.84C5.11 23.67 5.04 23.46 5.04 23.25V21.32L7.15 23.24C7.69 23.73 7.99 24.38 7.99 25.07V26.51L5.23 23.85L5.24 23.84ZM20.76 23.84L18 26.45V25.07C18 24.39 18.3 23.74 18.84 23.24L20.95 21.32V23.24C20.95 23.46 20.88 23.67 20.75 23.84H20.76ZM20.96 18.61L17.5 21.75C16.55 22.62 16 23.82 16 25.06V27.96H10V25.06C10 23.82 9.45 22.62 8.5 21.75L5.04 18.61V12C5.04 8.69 7.73 6 11.04 6H14.96C18.27 6 20.96 8.69 20.96 12V18.61Z"
      fill="var(--fill-0, #343330)"
    />
    <path
      d="M1 10C0.45 10 0 10.45 0 11V19C0 19.55 0.45 20 1 20C1.55 20 2 19.55 2 19V11C2 10.45 1.55 10 1 10Z"
      fill="var(--fill-0, #343330)"
    />
    <path
      d="M25 10C24.45 10 24 10.45 24 11V19C24 19.55 24.45 20 25 20C25.55 20 26 19.55 26 19V11C26 10.45 25.55 10 25 10Z"
      fill="var(--fill-0, #343330)"
    />
    <path
      d="M16.5 12H9.5C7.57 12 6 13.57 6 15.5C6 17.43 7.57 19 9.5 19H16.5C18.43 19 20 17.43 20 15.5C20 13.57 18.43 12 16.5 12ZM16.5 17H9.5C8.67 17 8 16.33 8 15.5C8 14.67 8.67 14 9.5 14H16.5C17.33 14 18 14.67 18 15.5C18 16.33 17.33 17 16.5 17Z"
      fill="var(--fill-0, #343330)"
    />
  </g>
</svg>
