<svg preserveAspectRatio="xMidYMid meet" width="100%" height="100%" overflow="visible" style="display: block;" viewBox="0 0 15.0013 12" fill="none" xmlns="http://www.w3.org/2000/svg">
<path id="Vector" d="M2.2 6C2.41189 6.17429 2.58263 6.39326 2.7 6.64125C3 7.26 3 8.01625 3 8.75C3 10.2694 3.0625 11 4.5 11C4.63261 11 4.75979 11.0527 4.85355 11.1464C4.94732 11.2402 5 11.3674 5 11.5C5 11.6326 4.94732 11.7598 4.85355 11.8536C4.75979 11.9473 4.63261 12 4.5 12C3.4075 12 2.6675 11.6163 2.3 10.8588C2 10.24 2 9.48375 2 8.75C2 7.23063 1.9375 6.5 0.5 6.5C0.367392 6.5 0.240215 6.44732 0.146447 6.35355C0.0526784 6.25979 0 6.13261 0 6C0 5.86739 0.0526784 5.74021 0.146447 5.64645C0.240215 5.55268 0.367392 5.5 0.5 5.5C1.9375 5.5 2 4.76937 2 3.25C2 2.5175 2 1.76 2.3 1.14125C2.66875 0.38375 3.40875 0 4.50125 0C4.63386 0 4.76103 0.0526785 4.8548 0.146447C4.94857 0.240215 5.00125 0.367392 5.00125 0.5C5.00125 0.632608 4.94857 0.759785 4.8548 0.853553C4.76103 0.947321 4.63386 1 4.50125 1C3.06375 1 3.00125 1.73063 3.00125 3.25C3.00125 3.9825 3.00125 4.74 2.70125 5.35875C2.58352 5.60686 2.41235 5.82585 2.2 6ZM14.5013 5.5C13.0638 5.5 13.0013 4.76937 13.0013 3.25C13.0013 2.5175 13.0013 1.76 12.7013 1.14125C12.3338 0.38375 11.5938 0 10.5013 0C10.3686 0 10.2415 0.0526785 10.1477 0.146447C10.0539 0.240215 10.0013 0.367392 10.0013 0.5C10.0013 0.632608 10.0539 0.759785 10.1477 0.853553C10.2415 0.947321 10.3686 1 10.5013 1C11.9388 1 12.0013 1.73063 12.0013 3.25C12.0013 3.9825 12.0013 4.74 12.3013 5.35875C12.4186 5.60674 12.5894 5.82571 12.8013 6C12.5894 6.17429 12.4186 6.39326 12.3013 6.64125C12.0013 7.26 12.0013 8.01625 12.0013 8.75C12.0013 10.2694 11.9388 11 10.5013 11C10.3686 11 10.2415 11.0527 10.1477 11.1464C10.0539 11.2402 10.0013 11.3674 10.0013 11.5C10.0013 11.6326 10.0539 11.7598 10.1477 11.8536C10.2415 11.9473 10.3686 12 10.5013 12C11.5938 12 12.3338 11.6163 12.7013 10.8588C13.0013 10.24 13.0013 9.48375 13.0013 8.75C13.0013 7.23063 13.0638 6.5 14.5013 6.5C14.6339 6.5 14.761 6.44732 14.8548 6.35355C14.9486 6.25979 15.0013 6.13261 15.0013 6C15.0013 5.86739 14.9486 5.74021 14.8548 5.64645C14.761 5.55268 14.6339 5.5 14.5013 5.5Z" fill="var(--fill-0, #7D7B98)"/>
</svg>
