<svg preserveAspectRatio="xMidYMid meet" width="100%" height="100%" overflow="visible" style="display: block;" viewBox="0 0 13 12.5" fill="none" xmlns="http://www.w3.org/2000/svg">
<path id="Vector" d="M12 3H10V1C10 0.734784 9.89464 0.48043 9.70711 0.292893C9.51957 0.105357 9.26522 0 9 0H1C0.734784 0 0.48043 0.105357 0.292893 0.292893C0.105357 0.48043 0 0.734784 0 1V9C0.000293571 9.09407 0.027117 9.18614 0.0773888 9.26565C0.127661 9.34516 0.199341 9.40887 0.284196 9.44947C0.369051 9.49007 0.463638 9.50591 0.55709 9.49517C0.650542 9.48443 0.739069 9.44754 0.8125 9.38875L3 7.625V9.5C3 9.76522 3.10536 10.0196 3.29289 10.2071C3.48043 10.3946 3.73478 10.5 4 10.5H9.84937L12.1875 12.3888C12.276 12.4603 12.3862 12.4996 12.5 12.5C12.6326 12.5 12.7598 12.4473 12.8536 12.3536C12.9473 12.2598 13 12.1326 13 12V4C13 3.73478 12.8946 3.48043 12.7071 3.29289C12.5196 3.10536 12.2652 3 12 3ZM2.65938 6.61125L1 7.95312V1H9V6.5H2.97375C2.85932 6.50002 2.74835 6.53928 2.65938 6.61125ZM12 10.9531L10.3406 9.61125C10.2522 9.53969 10.1419 9.50044 10.0281 9.5H4V7.5H9C9.26522 7.5 9.51957 7.39464 9.70711 7.20711C9.89464 7.01957 10 6.76522 10 6.5V4H12V10.9531Z" fill="var(--fill-0, #7D7B98)"/>
</svg>
