<svg preserveAspectRatio="xMidYMid meet" width="100%" height="100%" overflow="visible" style="display: block;" viewBox="0 0 13.5 13.5" fill="none" xmlns="http://www.w3.org/2000/svg">
<path id="Icon" d="M0.750001 0.75V7.55C0.750001 8.67011 0.750001 9.23016 0.967988 9.65798C1.15973 10.0343 1.4657 10.3403 1.84202 10.532C2.26984 10.75 2.8299 10.75 3.95 10.75H8.75M8.75 10.75C8.75 11.8546 9.64543 12.75 10.75 12.75C11.8546 12.75 12.75 11.8546 12.75 10.75C12.75 9.64543 11.8546 8.75 10.75 8.75C9.64543 8.75 8.75 9.64543 8.75 10.75ZM0.750001 4.08333L8.75 4.08333M8.75 4.08333C8.75 5.1879 9.64543 6.08333 10.75 6.08333C11.8546 6.08333 12.75 5.1879 12.75 4.08333C12.75 2.97876 11.8546 2.08333 10.75 2.08333C9.64543 2.08333 8.75 2.97876 8.75 4.08333Z" stroke="var(--stroke-0, #1E1B4B)" stroke-width="1.5" stroke-linecap="round" stroke-linejoin="round"/>
</svg>
