<svg preserveAspectRatio="xMidYMid meet" width="100%" height="100%" overflow="visible" style="display: block;" viewBox="0 0 14.5 13.5" fill="none" xmlns="http://www.w3.org/2000/svg">
<g id="Layer_1" clip-path="url(#clip0_0_4)">
<g id="Vector">
</g>
<g id="Vector_2">
</g>
<g id="Vector_3">
</g>
<path id="Vector_4" d="M14.21 7.415C14.395 7.23 14.505 6.975 14.505 6.71C14.505 6.445 14.4 6.19 14.215 6.005L9.995 1.755C8.865 0.63 7.34 0 5.75 0C4.65 0 3.585 0.305 2.66 0.865L6.295 4.5L0.295005 10.5C0.200005 10.595 0.130005 10.705 0.0800049 10.825C0.0300049 10.945 0.00500488 11.075 0.00500488 11.21C0.00500488 11.345 0.0300049 11.47 0.0800049 11.595C0.130005 11.715 0.205005 11.825 0.295005 11.92L1.59 13.215C1.685 13.31 1.795 13.38 1.915 13.43C2.035 13.48 2.165 13.505 2.3 13.505C2.43 13.505 2.56 13.48 2.685 13.43C2.805 13.38 2.915 13.305 3.01 13.215L9.01 7.215L9.905 8.11L11.01 9.215C11.105 9.31 11.215 9.38 11.335 9.43C11.455 9.48 11.585 9.505 11.72 9.505C11.855 9.505 11.98 9.48 12.105 9.43C12.225 9.38 12.335 9.305 12.43 9.215L14.225 7.42L14.21 7.415ZM2.295 12.5L1.005 11.205L5.255 6.955L6.55 8.25L2.3 12.5H2.295ZM10.25 7.04L9.355 6.145C9.31 6.1 9.255 6.06 9.195 6.035C9.135 6.01 9.07 5.995 9.005 5.995C8.94 5.995 8.875 6.01 8.815 6.035C8.755 6.06 8.7 6.095 8.655 6.145L7.26 7.54L5.965 6.25L7.36 4.855C7.405 4.81 7.445 4.755 7.47 4.695C7.495 4.635 7.51 4.57 7.51 4.505C7.51 4.44 7.495 4.375 7.47 4.315C7.445 4.255 7.41 4.2 7.36 4.155L4.4 1.195C5.255 0.955 6.16 0.945 7.02 1.17C7.88 1.395 8.665 1.845 9.29 2.47L12.055 5.25L10.255 7.045L10.25 7.04ZM10.96 7.75L12.75 5.955L13.5 6.705L11.71 8.5L10.96 7.75Z" fill="var(--fill-0, #7D7B98)"/>
</g>
<defs>
<clipPath id="clip0_0_4">
<rect width="14.5" height="13.5" fill="white"/>
</clipPath>
</defs>
</svg>
