<svg preserveAspectRatio="xMidYMid meet" width="100%" height="100%" overflow="visible" style="display: block;" viewBox="0 0 16 16" fill="none" xmlns="http://www.w3.org/2000/svg">
<g id="Prompt">
<g id="Vector">
<path d="M16 2.34576V12.1919C16 12.5183 15.8703 12.8314 15.6395 13.0622C15.4087 13.293 15.0957 13.4227 14.7692 13.4227H10.1946L9.05308 15.2911C8.9432 15.4726 8.78827 15.6226 8.60332 15.7266C8.41838 15.8306 8.2097 15.8849 7.99754 15.8845C7.78538 15.884 7.57695 15.8287 7.39246 15.7239C7.20797 15.6192 7.0537 15.4685 6.94462 15.2865L5.80538 13.4227H1.23077C0.904349 13.4227 0.591298 13.293 0.360484 13.0622C0.12967 12.8314 0 12.5183 0 12.1919V2.34576C0 2.01934 0.12967 1.70629 0.360484 1.47548C0.591298 1.24466 0.904349 1.11499 1.23077 1.11499H14.7692C15.0957 1.11499 15.4087 1.24466 15.6395 1.47548C15.8703 1.70629 16 2.01934 16 2.34576ZM14.7692 2.34576H1.23077V12.1919H5.80538C6.01726 12.1925 6.22545 12.2474 6.40998 12.3516C6.59451 12.4557 6.74921 12.6055 6.85923 12.7865L8 14.6535L9.14 12.7827C9.25051 12.6022 9.40551 12.453 9.59017 12.3496C9.77483 12.2462 9.98296 12.1919 10.1946 12.1919H14.7692V2.34576Z" fill="var(--fill-0, #1E1B4B)"/>
<path d="M8.0003 7.26914C8.00036 7.36145 7.97965 7.4526 7.9397 7.53582C7.89975 7.61904 7.84159 7.69221 7.76953 7.74991L4.69261 10.2114C4.62947 10.262 4.55701 10.2995 4.47935 10.322C4.40169 10.3445 4.32036 10.3515 4.24 10.3426C4.15964 10.3337 4.08183 10.309 4.01101 10.27C3.94018 10.231 3.87773 10.1784 3.82722 10.1153C3.77671 10.0522 3.73914 9.97969 3.71663 9.90203C3.69413 9.82438 3.68714 9.74305 3.69607 9.66269C3.705 9.58233 3.72967 9.50452 3.76867 9.43369C3.80767 9.36287 3.86024 9.30042 3.92338 9.24991L6.39953 7.26914L3.92338 5.28837C3.86024 5.23786 3.80767 5.17541 3.76867 5.10459C3.72967 5.03376 3.705 4.95595 3.69607 4.87559C3.68714 4.79523 3.69413 4.7139 3.71663 4.63625C3.73914 4.55859 3.77671 4.48612 3.82722 4.42299C3.87773 4.35985 3.94018 4.30728 4.01101 4.26828C4.08183 4.22928 4.15964 4.20461 4.24 4.19568C4.32036 4.18675 4.40169 4.19374 4.47935 4.21624C4.55701 4.23874 4.62947 4.27632 4.69261 4.32683L7.76953 6.78837C7.84159 6.84607 7.89975 6.91924 7.9397 7.00246C7.97965 7.08568 8.00036 7.17683 8.0003 7.26914ZM11.6926 9.11529H8.61568C8.45247 9.11529 8.29595 9.18013 8.18054 9.29554C8.06513 9.41094 8.0003 9.56747 8.0003 9.73068C8.0003 9.89389 8.06513 10.0504 8.18054 10.1658C8.29595 10.2812 8.45247 10.3461 8.61568 10.3461H11.6926C11.8558 10.3461 12.0123 10.2812 12.1278 10.1658C12.2432 10.0504 12.308 9.89389 12.308 9.73068C12.308 9.56747 12.2432 9.41094 12.1278 9.29554C12.0123 9.18013 11.8558 9.11529 11.6926 9.11529Z" fill="var(--fill-0, #1E1B4B)"/>
</g>
</g>
</svg>
