<svg
  preserveAspectRatio="xMidYMid meet"
  width="100%"
  height="100%"
  overflow="visible"
  style="display: block"
  viewBox="0 0 32 32"
  fill="none"
  xmlns="http://www.w3.org/2000/svg"
>
  <g transform="translate(3 1)">
    <path
      d="M24.02 13.41C26.21 10.47 27.18 6.72 26.97 1.98L26.88 0L25.34 1.24C23.65 2.61 21.03 1.95 18.01 1.19C13.59 0.0999999 8.12 -1.27 4.57 4.58C3.62 4.67 2.74 5.16 2.08 5.98C1.03 7.29 0.67 9.19 1.19 10.71L1.26 10.91C1.56 11.8 1.85 12.61 2.21 13.34C0.94 13.69 0 14.84 0 16.22V19.22C0 20.87 1.35 22.22 3 22.22V20.22C2.45 20.22 2 19.77 2 19.22V16.22C2 15.67 2.45 15.22 3 15.22V14.29L3.04 14.26V22.47C3.04 23.16 3.28 23.84 3.72 24.37L7.63 28.14C8.2 28.81 9.03 29.19 9.91 29.19H16.03C16.9 29.19 17.72 28.82 18.29 28.16L22.19 24.47L22.27 24.38C22.72 23.84 22.96 23.16 22.96 22.46V14.33L23 14.37V15.23C23.55 15.23 24 15.68 24 16.23V19.23C24 19.78 23.55 20.23 23 20.23V22.23C24.65 22.23 26 20.88 26 19.23V16.23C26 14.93 25.17 13.84 24.02 13.42V13.41ZM3.63 7.24C3.91 6.9 4.36 6.51 5.03 6.58L5.7 6.66L6.02 6.07C8.81 0.97 13.04 2.03 17.52 3.15C20.11 3.8 22.77 4.46 24.99 3.7C24.92 7.52 23.94 10.44 21.97 12.77C20.65 12.53 19.83 12.28 19.53 10.41L19.34 9.21L18.2 9.63C14.82 10.87 11.35 10.87 7.88 9.63L6.75 9.22L6.56 10.41C6.26 12.26 5.5 12.49 4.15 12.75C3.78 12.09 3.49 11.27 3.15 10.27L3.08 10.07C2.78 9.2 3.01 8.02 3.63 7.24ZM20.76 23.06L16.87 26.74L16.79 26.83C16.6 27.06 16.32 27.19 16.02 27.19H9.9C9.6 27.19 9.32 27.06 9.13 26.82L5.24 23.07C5.11 22.9 5.04 22.69 5.04 22.48V14.61C6.25 14.33 7.59 13.77 8.25 11.86C11.46 12.81 14.68 12.81 17.83 11.86C18.47 13.72 19.75 14.31 20.95 14.59V22.45C20.95 22.67 20.88 22.88 20.75 23.05L20.76 23.06Z"
      fill="var(--fill-0, #343330)"
    />
    <path
      d="M1.56 0C0.7 0 0 0.7 0 1.56C0 2.42 0.7 3.12 1.56 3.12C2.42 3.12 3.12 2.42 3.12 1.56C3.12 0.7 2.42 0 1.56 0Z"
      fill="var(--fill-0, #343330)"
      transform="translate(7.7706 15.2843)"
    />
    <path
      d="M1.56 0C0.699999 0 0 0.7 0 1.56C0 2.42 0.699999 3.12 1.56 3.12C2.42 3.12 3.12 2.42 3.12 1.56C3.12 0.7 2.42 0 1.56 0Z"
      fill="var(--fill-0, #343330)"
      transform="translate(14.769 15.2843)"
    />
  </g>
</svg>
