<svg width="20" height="20" viewBox="0 0 20 20" fill="none" xmlns="http://www.w3.org/2000/svg">
<path d="M14.8172 9.55781C14.8753 9.61586 14.9214 9.68479 14.9529 9.76066C14.9843 9.83654 15.0005 9.91787
 15.0005 10C15.0005 10.0821 14.9843 10.1635 14.9529 10.2393C14.9214 10.3152 14.8753 10.3841
  14.8172 10.4422L9.19219 16.0672C9.13412 16.1253 9.06518 16.1713 8.98931 16.2027C8.91344 16.2342
   8.83212 16.2503 8.75 16.2503C8.66788 16.2503 8.58656 16.2342 8.51069 16.2027C8.43482 16.1713
    8.36588 16.1253 8.30781 16.0672C8.24974 16.0091 8.20368 15.9402 8.17225 15.8643C8.14083 15.7884 8.12465 15.7071 8.12465 15.625C8.12465 15.5429 8.14083
     15.4616 8.17225 15.3857C8.20368 15.3098 8.24974 15.2409 8.30781 15.1828L12.8664 10.625H2.5C2.33424 10.625 2.17527 10.5592 2.05806 10.4419C1.94085 10.3247 1.875
      10.1658 1.875 10C1.875 9.83424 1.94085 9.67527 2.05806 9.55806C2.17527 9.44085 2.33424 9.375 2.5 9.375H12.8664L8.30781 4.81719C8.19054 4.69991 8.12465 4.54085 8.12465
       4.375C8.12465 4.20915 8.19054 4.05009 8.30781 3.93281C8.42509 3.81554 8.58415 3.74965 8.75 3.74965C8.91585 3.74965 9.07491 3.81554 9.19219 3.93281L14.8172 9.55781ZM16.875 2.5C16.7092
        2.5 16.5503 2.56585 16.4331 2.68306C16.3158 2.80027 16.25 2.95924 16.25 3.125V16.875C16.25 17.0408 16.3158 17.1997 16.4331 17.3169C16.5503 17.4342 16.7092 17.5 16.875 17.5C17.0408 
        17.5 17.1997 17.4342 17.3169 17.3169C17.4342 17.1997 17.5 17.0408 17.5 16.875V3.125C17.5 2.95924 17.4342 2.80027 17.3169 2.68306C17.1997 2.56585 17.0408 2.5 16.875 2.5Z"
         fill="currentColor"/>
</svg>
