<svg viewBox="0 0 25.3125 22.5" fill="none" xmlns="http://www.w3.org/2000/svg">
  <path d="M17.8125 9.375H23.4375C23.9348 9.375 24.4117 9.17746 24.7633 8.82582C25.115 8.47419 25.3125 7.99728 25.3125 7.5V1.875C25.3125 1.37772 25.115 0.900805 24.7633 0.549175C24.4117 0.197544 23.9348 0 23.4375 0H17.8125C17.3152 0 16.8383 0.197544 16.4867 0.549175C16.135 0.900805 15.9375 1.37772 15.9375 1.875V3.75H15C14.0054 3.75 13.0516 4.14509 12.3483 4.84835C11.6451 5.55161 11.25 6.50544 11.25 7.5V10.3125H7.5V9.375C7.5 8.87772 7.30246 8.40081 6.95082 8.04918C6.59919 7.69754 6.12228 7.5 5.625 7.5H1.875C1.37772 7.5 0.900805 7.69754 0.549175 8.04918C0.197544 8.40081 0 8.87772 0 9.375V13.125C0 13.6223 0.197544 14.0992 0.549175 14.4508C0.900805 14.8025 1.37772 15 1.875 15H5.625C6.12228 15 6.59919 14.8025 6.95082 14.4508C7.30246 14.0992 7.5 13.6223 7.5 13.125V12.1875H11.25V15C11.25 15.9946 11.6451 16.9484 12.3483 17.6516C13.0516 18.3549 14.0054 18.75 15 18.75H15.9375V20.625C15.9375 21.1223 16.135 21.5992 16.4867 21.9508C16.8383 22.3025 17.3152 22.5 17.8125 22.5H23.4375C23.9348 22.5 24.4117 22.3025 24.7633 21.9508C25.115 21.5992 25.3125 21.1223 25.3125 20.625V15C25.3125 14.5027 25.115 14.0258 24.7633 13.6742C24.4117 13.3225 23.9348 13.125 23.4375 13.125H17.8125C17.3152 13.125 16.8383 13.3225 16.4867 13.6742C16.135 14.0258 15.9375 14.5027 15.9375 15V16.875H15C14.5027 16.875 14.0258 16.6775 13.6742 16.3258C13.3225 15.9742 13.125 15.4973 13.125 15V7.5C13.125 7.00272 13.3225 6.52581 13.6742 6.17418C14.0258 5.82254 14.5027 5.625 15 5.625H15.9375V7.5C15.9375 7.99728 16.135 8.47419 16.4867 8.82582C16.8383 9.17746 17.3152 9.375 17.8125 9.375ZM5.625 13.125H1.875V9.375H5.625V13.125ZM17.8125 15H23.4375V20.625H17.8125V15ZM17.8125 1.875H23.4375V7.5H17.8125V1.875Z" fill="currentColor"/>
</svg>
