<svg width="127" height="200" viewBox="0 0 127 200" fill="none" xmlns="http://www.w3.org/2000/svg">
<g clip-path="url(#clip0_14957_10542)">
<path d="M120.765 122.814L119.659 121.568L117.496 120.143C118.494 119.534 119.298 119.298 119.948 118.261C122.401 114.346 124.166 109.246 126.379 105.137L126.401 80.5441C124.813 77.7569 123.546 74.7667 121.974 71.9758C121.353 70.8717 120.986 70.1886 119.938 69.4323C118.663 68.5128 117.073 67.8172 115.639 67.1711C115.433 67.0003 115.446 65.7738 115.639 65.5597C116.919 64.697 118.975 64.1227 119.826 62.8158C122.376 58.9072 124.043 54.131 126.38 50.0616L126.4 26.7055C124.537 22.9764 122.736 19.1805 120.778 15.4947C120.227 14.4563 119.065 12.002 118.241 11.3485C111.767 8.12561 105.432 4.20344 98.9334 1.07585C96.2711 -0.20514 92.4269 0.195865 89.4578 0.155022C88.6335 0.143883 87.7547 -0.0739472 86.8636 0.026304C85.8549 0.14017 83.0207 2.05237 81.9352 2.64769C77.8559 4.88416 73.7728 7.11568 69.6811 9.32987C68.4322 10.4425 67.7354 12.153 66.8765 13.58V25.6473H66.2564C66.1525 25.5471 66.1871 23.1423 66.1252 22.7462C66.0708 22.4009 65.6376 21.6694 65.4544 21.313C63.6264 17.7572 61.4233 14.3536 59.3935 10.9128C54.1471 8.05383 48.8362 5.18986 43.5229 2.40139C42.1887 1.70087 40.8978 0.567166 39.3322 0.642664C38.0078 0.705785 32.9297 1.98058 31.6809 2.52145L7.79757 15.5195C4.72196 19.1879 2.61173 23.7017 0.169811 27.8182L0.220556 50.6532C2.22682 55.5086 4.75909 60.1214 7.0921 64.822C7.99065 66.1686 9.90903 66.8308 11.3113 67.556L11.3027 69.0895C9.89171 68.7405 8.31863 70.0933 7.16264 70.8272C5.28634 74.7296 2.97437 78.4352 1.09064 82.3301C0.65374 83.2336 0.237883 83.9527 0.15991 84.9886C-0.340109 91.6423 0.533686 98.9297 0.178475 105.649C1.707 109.074 3.31968 112.544 5.0091 115.918C5.6564 117.21 6.58218 119.622 7.75425 120.353C8.83102 121.023 10.2853 121.585 11.4264 122.19L11.2878 122.913C9.76794 123.025 9.12064 123.934 8.21219 124.974C6.02151 127.483 2.95581 131.37 1.17727 134.153C0.64879 134.979 0.169811 136.111 0.15991 137.107C0.0881251 144.347 0.176 151.679 0.21808 158.953C2.16493 162.944 3.87044 167.167 5.87423 171.119C6.92377 173.191 7.0067 173.164 8.99192 174.314C14.0936 177.271 19.3933 179.988 24.615 182.701C26.0322 182.919 28.9147 181.881 30.3343 181.381C33.4408 180.289 36.0288 178.677 38.842 177.017C39.0388 177.1 38.7789 177.303 38.7789 177.325V184.132C38.7789 184.458 41.024 189.704 41.3236 190.127C41.5154 190.397 41.8372 190.624 42.0587 190.877C47.7483 193.868 53.2782 197.318 59.1336 199.917L71.6254 200.003C76.1392 197.402 80.7495 194.963 85.2745 192.385C86.3723 191.76 89.1781 190.364 89.9553 189.64C90.2944 189.324 90.4157 188.966 90.6199 188.572C90.9405 187.948 93.1126 183.206 93.1126 182.896V180.977C95.7563 182.215 98.5274 182.102 101.375 182.135L119.267 172.168C119.979 171.638 120.314 170.773 120.694 170.005C122.724 165.909 124.5 161.662 126.376 157.494L126.35 134.929C124.688 130.807 122.682 126.824 120.763 122.817L120.765 122.814ZM120.282 123.792L125.291 134.686L119.197 127.724L118.609 122.063C119.448 122.294 119.857 123.12 120.281 123.792H120.282ZM118.047 121.572L118.68 127.576C118.647 127.795 117.836 128.28 117.609 128.426C113.339 131.155 107.762 134.08 103.221 136.44C102.66 136.731 100.886 137.648 100.354 137.597C100.245 137.587 100.063 137.435 99.8666 137.4C99.2824 137.3 95.5075 136.638 95.3367 136.482C95.2154 136.372 95.2179 136.197 95.2142 136.047L95.0892 136.418C94.8305 136.682 91.6423 135.216 91.1311 134.994C90.9009 134.817 91.3539 134.556 91.4814 134.356C91.6088 134.154 91.7054 133.934 91.7549 133.7C91.8923 133.603 93.7983 134.744 94.1807 134.915C98.1673 136.697 99.7874 135.311 103.219 133.468C107.273 131.292 111.218 128.892 115.267 126.703C115.396 126.609 115.38 126.474 115.396 126.337C115.56 124.973 115.263 123.273 115.383 121.869C115.453 121.053 115.855 120.994 116.565 120.704L118.044 121.57L118.047 121.572ZM89.537 150.099C83.1234 153.896 76.6194 157.557 70.0363 161.053L60.3107 160.989C55.3563 158.182 50.2199 155.684 45.2556 152.9C44.8027 152.646 42.3471 151.32 42.2679 151.06L42.1837 147.302L43.6046 146.319V150.403C43.763 150.396 43.919 150.427 44.0601 150.501C50.0491 153.663 55.9107 157.226 62.1077 159.934C64.2316 159.795 66.5782 160.119 68.6724 159.938C69.9459 159.828 72.4126 158.274 73.6404 157.604C78.3782 155.021 83.0776 152.304 87.6669 149.476V145.082C88.0419 145.297 89.4169 145.901 89.5036 146.283C89.2115 147.555 89.6496 148.82 89.5358 150.099H89.537ZM60.6869 165.627H69.9076C69.9447 165.627 70.0029 165.469 70.0932 165.503V195.516C70.0932 195.553 70.2504 195.612 70.217 195.702H61.0582V166.555C61.0582 166.343 60.8218 165.829 60.6869 165.627ZM61.4852 165.138C60.6077 164.959 59.677 165.208 59.8478 163.988C59.8824 163.737 60.5297 161.813 60.6436 161.786L70.1984 161.685C70.4719 162.876 71.514 164.046 70.2578 164.989L61.4852 165.139V165.138ZM60.5619 195.702L45.5242 187.782L45.4376 182.299L42.3694 177.199V156.096L59.0643 164.712C59.5124 164.979 60.3527 165.667 60.4332 166.19C60.5495 166.947 60.427 167.71 60.4332 168.406C60.4517 170.247 60.5483 172.048 60.5669 173.85C60.6423 181.132 60.5037 188.421 60.5619 195.702ZM41.935 151.642L60.0594 161.431C59.8651 162.334 59.5309 163.175 59.323 164.079C59.2896 164.227 59.4158 164.305 59.1435 164.264L39.8978 154.303C40.9906 153.756 41.3211 152.622 41.9362 151.643L41.935 151.642ZM39.7641 153.551C39.5958 153.129 39.6205 152.671 39.6787 152.23C39.7653 151.57 41.0476 148.22 41.409 147.648C41.5067 147.493 41.5228 147.388 41.7506 147.433V149.722C41.7506 150.059 41.5624 150.838 41.5303 151.235L40.0153 153.62L39.7641 153.549V153.551ZM70.5895 161.301L89.7301 150.663L89.8984 150.706C90.1756 151.083 90.4739 151.654 90.8056 151.97C90.917 152.077 91.3997 152.286 91.3811 152.323C84.7645 156.239 78.1034 160.116 71.3321 163.772L70.5895 161.302V161.301ZM27.0842 128.744C27.0545 128.744 26.9196 128.979 26.8985 128.806V87.7771L35.3828 87.5357L36.9843 87.2808C37.1798 87.4045 36.8865 87.4442 36.8011 87.4664C35.7949 87.7387 35.2813 87.5939 34.3369 88.2214C32.6104 89.37 31.3121 91.0841 29.8627 92.5347L29.739 92.906C29.8244 103.575 29.9222 114.313 29.8627 124.944C31.0076 126.01 31.9111 127.365 33.2181 128.302C33.4545 128.472 33.8394 128.51 33.9532 128.743C31.6673 128.78 29.3714 128.692 27.0842 128.743V128.744ZM32.8393 129.61V136.789L28.8788 137.16V129.61C30.2093 129.771 31.4989 129.556 32.8393 129.61ZM15.3597 99.0065L10.0662 89.4479V79.6085L24.995 87.6385C25.4418 87.7808 25.9666 88.0061 26.4022 87.7771L26.4109 127.823C26.5 128.271 25.8007 128.931 25.4096 128.818L18.8747 125.135L18.8462 115.075C18.246 113.309 15.6716 110.839 15.4204 109.095C14.9798 106.029 15.7063 102.158 15.3597 99.0065ZM26.1559 73.6664L32.0064 68.8135C34.2033 68.4496 36.4422 68.2776 38.5314 67.4805C38.8272 68.8865 38.0487 68.8902 37.3073 69.6588C36.4075 70.5933 35.4632 71.8619 34.9248 73.0303L26.1559 73.6677V73.6664ZM33.2106 74.039V82.4551L29.0026 82.8264V74.4103L33.2106 74.039ZM28.5087 82.6395L12.1703 73.8533V67.9744L24.5135 74.5055C25.7364 74.8954 27.1498 74.5241 28.3825 74.4103L28.5087 82.6395ZM25.7834 30.3517L25.7066 30.6054L24.417 31.4124L8.08595 22.4925L9.20356 21.49L25.7834 30.3517ZM9.56991 21.1261L16.1902 14.4192L34.9397 24.2227L26.2413 29.8838C25.8477 29.9829 25.2871 29.6054 24.9145 29.4234C20.5988 27.3058 16.09 24.7562 11.8386 22.4492C11.0724 22.0333 10.3249 21.563 9.56991 21.1261ZM25.5297 31.1475C25.7772 30.9656 26.0025 30.3628 26.2116 30.6029L34.1377 43.4673L34.2602 42.9772L26.5285 30.4123L35.254 24.6794L41.9857 35.9645L39.0524 39.8434C38.6019 40.1132 38.6849 41.3942 38.6403 41.466C38.5301 41.6429 36.2429 42.7717 35.8543 42.9561C35.0127 43.3571 33.957 43.6368 33.1735 44.1121C33.0163 44.2074 32.4445 44.4636 32.6549 44.7074L34.2008 44.0873C34.2193 51.9453 34.176 59.8058 34.2008 67.665C34.2008 67.6934 34.2936 67.7318 34.2973 67.7887L34.1154 67.9509L32.3443 68.2207C32.4792 66.4285 32.4928 64.6327 32.473 62.8319C32.4693 62.4791 32.3406 62.1747 32.3381 61.8529C32.291 56.0767 32.4903 50.2955 32.3121 44.5515L24.6682 31.5262C24.9591 31.4025 25.2648 31.3418 25.5284 31.1463L25.5297 31.1475ZM119.854 24.8998L99.7007 35.967L95.9605 29.1573L116.113 18.0901L119.854 24.8998ZM116.383 17.6025C116.795 17.8487 117.007 17.4156 117.313 17.2312C117.429 17.1606 117.406 17.0183 117.555 17.2336L121.456 24.1596L120.279 24.625L120.095 24.4777L116.383 17.6025ZM99.0287 72.8991C96.7563 72.9164 94.5186 72.206 92.2475 72.0587C92.3824 71.3953 92.9728 70.7727 93.0842 70.1118C93.229 69.2541 93.0545 68.2541 93.3626 67.3568L100.852 70.821L99.0299 72.8991H99.0287ZM101.078 73.4028L114.648 65.9941V72.6156C114.648 72.8582 114.066 73.1874 113.865 73.3174C110.553 75.4276 106.138 77.6715 102.602 79.5057C101.203 80.2323 99.7106 81.0862 98.1871 81.465V73.7914C99.2527 74.008 100.11 73.9003 101.078 73.4028ZM97.6932 73.6677V81.465C96.8368 81.2855 95.8615 81.2521 94.9704 81.2174V73.2963L97.6932 73.6677ZM102.13 85.876L95.531 97.9285L93.1361 96.4791C92.9369 94.5942 93.3218 92.4084 93.1126 90.5618C92.9926 89.5036 91.3848 87.157 90.6398 86.3513C89.8439 85.4899 88.8365 84.8277 87.7894 84.3128V78.4958C90.4244 79.9785 93.0408 81.538 95.7897 82.8103C97.0905 83.4118 98.8925 84.2435 100.221 84.6916C100.492 84.7832 100.745 84.8351 101.032 84.8092L100.959 85.1866L102.128 85.8773L102.13 85.876ZM93.1139 119.214V97.3071L95.3466 98.504L95.3516 119.157C95.3664 119.418 95.0149 119.364 94.9704 119.586C95.0966 119.565 95.4023 119.423 95.458 119.465L95.7117 120.204L95.1115 120.188C95.0496 120.15 94.9481 119.694 94.9691 119.586C94.307 119.699 93.7785 119.354 93.1126 119.215L93.1139 119.214ZM95.0879 133.763C95.1275 134.06 95.2402 134.327 95.5892 134.313V128.187C95.5892 128.142 95.2674 127.952 95.6511 128C96.4036 128.097 97.2662 128.498 98.0645 128.496V134.932C97.0496 134.744 96.062 134.863 95.0657 134.528C94.0792 134.195 93.1337 133.307 92.1299 132.942C92.0148 132.779 93.1139 130.847 93.1139 130.539C93.1139 129.441 93.1646 128.286 93.1139 127.197C93.1139 127.187 92.8156 126.902 93.1733 127.012C93.7735 127.198 94.4023 127.728 95.0817 127.765C95.2785 127.991 94.9766 132.912 95.0879 133.761V133.763ZM92.1225 93.0991C91.0828 92.3317 90.5048 91.4604 90.2808 90.1769C90.0977 89.1323 90.3031 88.0172 89.8972 87.0345C90.9071 88.0518 92.2871 90.1002 92.2549 91.5569C92.2438 92.0718 92.0433 92.5718 92.1225 93.0991ZM41.378 92.4109L39.5228 93.5941L39.8037 91.5866L41.2543 88.3972C41.3458 89.7437 40.6961 91.1559 41.378 92.4109ZM40.4485 88.0234C40.227 88.4145 38.7802 91.4752 38.7802 91.677V97.3084L33.0856 94.2749L39.8272 86.4119L43.4264 84.1928C43.6751 84.1569 43.586 84.2015 43.6083 84.3723C43.6652 84.8079 43.5737 85.3426 43.6021 85.7931C42.1776 86.0778 41.1689 86.7535 40.4498 88.0246L40.4485 88.0234ZM30.3566 92.9072C30.3405 92.7575 30.411 92.6572 30.4803 92.5359C30.6685 92.2092 32.7255 90.245 33.145 89.8786C34.6538 88.5605 35.1266 88.7586 36.7219 88.0098C37.4658 87.6607 38.0301 86.9974 38.7789 86.6644C37.2058 88.1471 35.9248 89.8675 34.5102 91.4913C33.9211 92.1683 32.2019 93.5657 32.0893 94.3924L32.1004 122.24C33.3455 124.049 34.6364 125.84 35.785 127.714C35.9508 127.985 36.3172 128.449 36.2429 128.741C35.7602 128.477 35.2058 128.719 34.6884 128.563C34.3208 128.453 33.1797 127.61 32.8356 127.322C32.4767 127.02 30.2613 124.725 30.2378 124.472C30.5063 114.006 30.2959 103.424 30.3553 92.906L30.3566 92.9072ZM33.5832 122.928L38.7604 125.792V127.735L37.1687 128.439L33.5832 122.927V122.928ZM32.9631 121.875V94.8318L38.7802 97.8022V124.907L32.9631 121.875ZM41.9313 87.657L43.6058 86.5406V89.8824L61.4246 99.6018C63.8714 99.5919 66.624 100.029 69.0461 99.7899C69.9125 99.7045 72.5661 98.0931 73.5166 97.577C78.2779 94.9964 82.9947 92.3107 87.6644 89.5717C87.9887 89.245 87.6557 88.8031 87.6656 88.459C87.6731 88.2177 87.7882 87.9863 87.7956 87.7214C87.8154 86.9169 87.7684 86.1062 87.7906 85.303L89.3278 86.4255C89.6335 87.5964 89.7907 88.9603 89.6892 90.1423L70.587 100.837C67.5411 101.132 64.2304 101.156 61.1906 100.825L41.9944 90.5643C41.6689 90.1992 42.1318 88.2771 41.93 87.657H41.9313ZM39.399 72.6775L35.5622 72.925L37.4212 70.3915L38.4707 69.4608C38.3804 70.7406 38.9373 71.5648 39.3978 72.6775H39.399ZM39.399 70.3878V45.7582L39.6515 45.6258L45.5341 48.7905L45.549 54.7078C46.1963 56.9492 51.0331 63.3294 51.0331 65.1896V76.6381L39.399 70.3878ZM88.7795 36.6626C88.808 36.9386 88.9738 37.1527 89.1248 37.3705C89.8823 38.4671 91.8749 40.5216 91.8749 41.7989V44.5837C91.4678 44.2037 91.318 43.6665 90.9479 43.221C90.3836 42.5415 89.4429 41.9437 88.8414 41.2457C88.8191 39.8211 88.5815 38.3941 88.657 36.9707C88.6644 36.8309 88.5753 36.6316 88.7795 36.6638V36.6626ZM60.5631 85.3018C60.698 84.8413 60.9778 83.0987 61.3911 82.9749L70.0784 83.0888L70.8346 85.3005H60.5631V85.3018ZM69.1031 86.1681V98.9161H62.4135V86.1681H69.1031ZM60.0074 85.178L51.4316 80.5231L51.4056 77.3819L60.6683 82.3499L60.0074 85.178ZM61.1758 82.4551V59.9295H69.9694V82.4551H61.1758ZM69.7219 86.1681H71.6403L86.9243 77.752V88.9529L69.7219 98.6067V86.1681ZM86.0183 77.2792C82.0466 79.4971 78.0242 81.6952 74.0129 83.8388C73.1342 84.3079 72.2257 84.7411 71.3321 85.1792L70.4645 82.7064L91.7512 71.1948C91.8353 71.2851 91.1237 72.3025 91.0247 72.5092C90.7091 73.1676 90.4529 74.1899 90.0717 74.7741C89.6867 75.362 86.8166 76.8348 86.0183 77.2804V77.2792ZM70.4645 82.2076V60.2389C70.4645 60.0063 72.0376 56.2487 72.2282 55.938C72.576 55.3737 73.6342 55.0939 74.2604 54.7523C80.174 51.5307 86.0406 48.215 92 45.0775V70.5735L70.4645 82.2076ZM88.7696 41.6219C88.9305 42.0798 91.6064 44.5317 91.3811 44.8287L72.1378 55.1026L70.9794 51.428L71.0809 51.2064L88.7709 41.6219H88.7696ZM71.79 55.641L70.2776 59.4444L61.057 59.375C60.9245 59.2946 59.8936 56.8415 59.8144 56.5334C59.3898 54.8823 60.6547 53.0852 60.6869 51.3908L70.4707 51.4453L71.7888 55.641H71.79ZM60.4901 59.5743C60.5928 59.8082 60.7933 59.7674 60.8193 59.9865C60.906 60.713 60.698 61.4234 60.682 62.0917C60.526 68.6662 60.8602 75.2642 60.6263 81.8363L51.4254 76.867C51.2744 72.7394 51.8103 68.5895 51.3772 64.4755C50.0269 61.6177 48.252 58.9765 46.804 56.1769C46.6629 55.9046 45.9586 54.5791 45.9586 54.4231V49.0393L59.0445 56.0036C59.5705 57.172 59.974 58.401 60.4901 59.5743ZM52.7621 82.3969C53.6805 82.8809 59.7153 86.1693 60.1287 86.1693H61.9233V98.9173L44.3484 89.3254V77.877C47.2025 79.2867 49.9476 80.913 52.7621 82.3969ZM93.6052 80.6642C91.9121 79.7941 89.7808 78.6753 88.1991 77.6542C88.079 77.5774 87.8686 77.5131 87.9144 77.3213C87.9491 77.1777 89.7573 76.3447 90.0593 76.1232C90.662 75.6813 90.9888 75.039 91.0098 74.2877L91.193 74.534C91.9653 74.2395 91.6831 73.4523 92.0061 72.8075L94.4728 73.3595V80.7855C94.4852 80.8412 94.6708 80.9513 94.7204 81.033C94.4097 81.1704 93.9196 80.8263 93.604 80.6642H93.6052ZM93.4753 66.5572L93.479 38.477L99.5485 36.5388L99.6091 69.7096L93.4753 66.5572ZM99.1735 35.9732L93.2376 37.899L90.8861 33.1426L95.5273 29.5076L99.1722 35.9719L99.1735 35.9732ZM90.5754 32.7812C83.6927 29.1586 76.8756 25.4047 69.9868 21.792L70.712 16.116L95.2167 29.2341L90.5754 32.7812ZM88.8649 32.4322C90.6707 33.4521 90.6224 33.6266 91.5692 35.4212C91.9146 36.0747 92.8837 37.8421 92.9827 38.4634C93.2104 39.8941 93.0495 43.0737 92.995 44.6493C92.969 45.4055 92.8032 46.2755 92.8044 47.059C92.5779 44.8399 93.0396 42.5613 92.5569 40.3743C91.2908 39.1602 90.2338 36.8457 89.0345 35.7281C88.5889 35.3135 87.6879 34.8494 87.1322 34.5363C81.6134 31.4161 75.8001 28.7687 70.2789 25.6461H67.8654L67.7924 22.7932L69.7219 22.2326C76.0006 25.8033 82.58 28.8826 88.8662 32.4322H88.8649ZM82.2013 32.9681L82.1592 39.2592L71.29 45.3461L68.7862 46.5553C66.5658 46.7149 64.3059 46.8263 62.104 46.4451L49.1964 39.4349L49.3796 37.6391L69.8147 26.5347L82.2013 32.9669V32.9681ZM60.8082 46.3807C61.2463 46.5936 61.8194 46.9167 62.2897 47.0033C63.3974 47.205 67.6339 47.2063 68.7825 47.0491C69.3531 46.9711 70.29 46.4105 70.8383 46.1345C73.7716 44.6579 76.8348 42.888 79.7062 41.2642C80.1728 41.0006 82.7174 39.6986 82.7174 39.3248C82.7174 37.4671 82.8548 35.3246 82.7174 33.5077C82.715 33.4756 82.4575 33.285 82.6543 33.1996L88.1013 36.2925C88.282 37.9337 88.3785 39.5921 88.2251 41.2444L70.8494 50.8289L60.4047 50.8698L48.5577 44.4636L52.944 42.1096L60.8082 46.3832V46.3807ZM60.3156 51.3921C59.9703 52.6867 59.6361 53.9838 59.323 55.2883C59.2883 55.4331 59.4158 55.511 59.1411 55.4751L46.0861 48.4823C46.8139 47.3907 47.2495 46.1097 47.9092 44.9871C47.9686 44.8856 47.8832 44.7854 48.1221 44.8275L60.3168 51.3921H60.3156ZM45.6406 48.2954L39.7715 45.1406L42.3843 41.8781L47.6877 44.6455L45.6406 48.2954ZM42.2196 41.4016L39.2752 44.9537C39.4299 42.9078 39.2653 41.2605 40.4114 39.4696C40.9857 38.5711 41.8298 37.6378 42.4907 36.7851L42.2196 41.4016ZM38.6552 41.9845L38.4163 66.9087L34.6958 67.8494L34.5721 43.841C35.254 43.9264 35.7578 43.4029 36.389 43.2433L38.6564 41.9845H38.6552ZM33.8295 74.039L39.7777 73.4783C40.3928 74.4053 40.6342 75.7172 41.5859 76.3695C42.0129 76.6628 42.6417 76.7445 42.9882 77.1307L33.8295 82.3301V74.0377V74.039ZM42.0575 75.5266C41.0104 74.2407 40.5488 72.5785 39.6465 71.1935L51.0331 77.195V80.4748L42.0575 75.5266ZM43.4759 82.0269C43.4882 82.3152 43.6417 82.6333 43.6108 82.8833C43.5687 83.2113 42.8298 83.6049 42.5303 83.7943C41.3174 84.5641 39.6057 85.6842 38.3668 86.3142C37.1217 86.9478 36.1439 86.9553 34.7614 87.0407C31.7205 87.2288 28.6474 87.1706 25.6089 87.2721C24.6175 86.8884 23.636 86.3612 22.6867 85.8624C18.5022 83.6606 14.434 81.2174 10.2036 79.0985C10.0551 78.8659 10.6677 77.4388 10.8818 77.3893L26.9666 85.9144C29.8368 85.824 32.7131 85.808 35.5684 85.4961L43.4202 80.9736C43.6454 80.9736 43.466 81.7905 43.4759 82.0269ZM23.3922 128.599C23.9603 128.9 25.4381 129.907 25.9727 129.94C26.1188 129.948 26.2859 129.734 26.3403 129.734H28.1968C28.234 129.734 28.2921 129.577 28.3825 129.61V136.418C26.9159 135.611 25.4802 134.723 24.0098 133.921C20.4354 131.972 15.7286 129.984 12.4549 127.777C12.2569 127.644 12.0428 127.536 11.9475 127.295L11.9834 122.432C15.7545 124.543 19.574 126.574 23.3922 128.598V128.599ZM33.5201 129.61C34.5993 129.501 35.9447 129.758 36.9855 129.61C37.2974 129.566 38.7146 128.796 38.7789 128.868C38.6428 130.414 39.045 131.985 40.0166 133.197L33.3975 136.666L33.5201 129.61ZM39.6366 129.551C39.5661 122.017 39.7282 114.323 39.6923 106.756L39.6366 94.5199L39.6737 94.364C40.253 94.1263 41.0773 93.1795 41.6231 93.0285C41.8607 92.9629 42.1194 93.1102 42.3298 93.203C44.268 94.0595 46.398 95.4828 48.3077 96.5064C52.1284 98.5547 55.964 100.581 59.8131 102.576C60.5112 103.116 60.38 104.66 60.5631 105.476L41.8112 95.8244C41.4572 107.851 41.6676 119.953 41.6949 131.969C41.8236 132.318 43.6999 133.341 44.143 133.593C46.9339 135.187 49.9155 136.703 52.7633 138.216C55.2931 139.559 57.8588 140.852 60.4196 142.132C60.6089 142.633 60.3131 144.439 59.7599 144.477C59.3205 144.508 57.0556 143.222 56.4776 142.919C51.5269 140.325 46.6616 137.55 41.7592 134.864C41.581 134.745 41.4572 134.588 41.3545 134.403C40.8149 133.412 39.6478 130.619 39.6379 129.552L39.6366 129.551ZM61.2364 143.59L70.134 143.716L70.8358 144.835H60.3156L60.8713 143.72L61.2364 143.59ZM61.0582 143.107V105.971H70.0932V143.107H61.0582ZM69.1031 145.7V159.067H62.4196V145.7H69.1031ZM61.9246 145.7V159.067C61.6226 158.993 61.2525 158.853 60.974 158.718C56.3427 156.483 51.2447 153.693 46.7421 151.167C46.3386 150.94 44.3497 149.923 44.3497 149.599V137.408C48.6493 139.591 52.798 142.092 57.0952 144.279C57.6026 144.538 59.7587 145.7 60.13 145.7H61.9246ZM60.5483 105.986L60.4381 141.741L42.2667 131.881L42.1206 96.6301L60.5495 105.987L60.5483 105.986ZM86.9305 144.407C86.923 144.759 86.8055 145.059 86.7956 145.386C86.777 146.027 86.9268 148.953 86.678 149.229L69.5969 158.819V145.7C70.4695 145.873 71.5376 145.777 72.3631 145.434L86.8624 137.284C86.9292 139.648 86.9812 142.038 86.9292 144.405L86.9305 144.407ZM71.2083 144.834C71.2281 144.341 70.79 143.975 70.7195 143.527C70.587 142.684 70.7492 141.465 70.717 140.559C70.3048 128.961 70.7615 117.278 70.5833 105.656C70.5041 104.951 71.7641 103.135 71.519 102.63C71.4187 102.425 71.1774 102.349 70.9596 102.38L70.0833 105.471L61.0706 105.462C60.807 104.405 60.901 103.239 60.3837 102.25C57.0407 100.473 53.6656 98.749 50.3301 96.9569C47.9154 95.6586 45.4413 94.0855 42.9895 92.9109C42.5402 92.6956 42.1553 92.4047 41.6256 92.4802V91.12C41.7716 91.0903 41.8632 91.1361 41.9907 91.1869C43.3063 91.7166 45.1492 93.0124 46.4933 93.7389C50.8499 96.0955 55.7053 98.3394 59.9022 100.875C60.1139 101.004 60.6263 101.258 60.7537 101.385C60.9542 101.587 60.9035 101.914 61.1795 102.01L61.2488 101.63C63.9407 101.486 66.879 101.853 69.54 101.644C69.8952 101.615 70.2405 101.529 70.5858 101.452L90.0172 90.6237C89.8662 91.1089 90.6249 91.6683 90.2672 92.0471L71.7616 102.133C71.446 102.986 72.1737 102.512 72.649 102.278C78.6393 99.3171 84.3586 95.7799 90.2647 92.6572C91.1026 92.4146 91.4207 93.4753 92.0953 93.7427C92.2475 104.726 91.9863 115.722 92.1163 126.707C92.1336 128.219 92.469 129.347 92.0024 130.914C91.7883 131.633 90.8254 133.873 90.3056 134.291C83.986 137.883 77.6665 141.503 71.2059 144.832L71.2083 144.834ZM87.8538 136.914L90.3489 135.456C93.2747 137.047 96.4395 137.901 99.796 137.78L97.9395 144.959C97.8269 145.068 96.6858 144.611 96.4568 144.523C95.3491 144.097 87.8315 140.676 87.7151 139.952L87.8538 136.914ZM98.5596 134.932V128.496C99.9866 128.77 101.602 128.366 103.013 128.061L114.649 121.689V126.083L98.5596 134.932ZM125.614 81.0268L125.511 104.89L118.912 118.094C114.258 120.823 109.562 123.626 104.75 126.087C103.368 126.793 102.193 127.504 100.599 127.629C97.9309 127.839 95.4196 127.272 93.1139 125.96V119.834C93.7055 120.093 94.4802 120.177 95.057 120.428C97.0818 121.311 99.3554 125.114 101.217 126.645C101.483 126.864 101.771 127.168 102.148 127.136C102.11 126.807 101.967 126.478 101.778 126.208C100.433 124.288 97.8083 122.335 96.4568 120.39C96.1536 119.954 95.9494 119.677 95.8677 119.122L95.9036 98.5535L102.586 86.1755L119.836 76.5737C120.065 76.5291 121.84 77.9364 122.184 78.2C122.612 78.5267 125.58 80.8078 125.611 81.0281L125.614 81.0268ZM119.849 70.6985L120.567 71.5252L124.673 79.4847L119.664 75.5217C119.473 73.9164 119.825 72.3037 119.849 70.6972V70.6985ZM102.4 85.6718C102.296 85.0555 101.682 85.0505 101.284 84.7448L119.229 74.9066C119.203 75.3954 119.156 75.7816 119.599 76.0811L102.401 85.6718H102.4ZM115.575 68.1006C116.767 68.4756 118.25 69.7418 119.463 70.2183L119.094 73.8434L118.781 74.5204L101.16 84.2609L94.8454 81.8994C94.8478 81.7335 96.8702 82.3165 97.1313 82.3375C99.1673 82.4997 101.66 80.835 103.469 79.8795C107.331 77.8398 111.091 75.5922 114.938 73.5253C115.246 73.4065 115.514 72.6342 115.514 72.3693C115.514 71.0277 115.576 69.6155 115.514 68.285C115.514 68.2751 115.216 67.9892 115.574 68.1006H115.575ZM118.605 62.8331C113.198 65.6661 107.94 68.8172 102.523 71.628C101.606 72.1032 100.661 72.6243 99.6735 72.9238C100.302 72.2864 101.056 71.7753 101.479 70.9559L119.846 60.5484L118.605 62.8331ZM121.934 56.9034L121.859 57.1683C121.073 59.3367 119.693 60.0929 117.825 61.1895C112.519 64.3059 106.945 66.9978 101.656 70.1502L100.178 69.9447L100.068 36.3173L121.636 24.5334C121.817 24.6485 121.809 24.7747 121.83 24.9616C122.132 27.5756 121.716 31.0708 121.695 33.7491C121.633 41.4585 121.573 49.2212 121.932 56.9059L121.934 56.9034ZM125.546 27.5595L125.535 49.7126L122.2 55.969V25.0272L125.385 26.9134C125.527 27.0607 125.531 27.359 125.546 27.5583V27.5595ZM118.24 12.8993L125.168 26.2661L122.072 24.3515C120.997 22.0383 119.256 19.7436 118.172 17.4836C117.47 16.0207 118.518 14.4353 118.24 12.8993ZM86.2733 1.16991C87.2139 0.731776 91.1794 1.10184 92.4282 1.1464C94.1399 1.20704 96.5286 0.990449 98.093 1.66993C98.6574 1.91499 99.2329 2.40387 99.7948 2.69101C105.778 5.74434 111.71 8.90658 117.627 12.0874C118.162 12.6542 117.699 13.7298 117.622 14.4476C117.539 15.2311 117.74 16.8883 116.808 17.1012L116.652 17.0777L116.57 16.8586L116.2 17.3524L85.9354 1.45086C86.0344 1.33947 86.1346 1.23303 86.2733 1.16991ZM85.6185 1.7578L115.636 17.418L115.758 17.8426L95.5446 28.843C94.9765 28.4222 94.3577 28.0174 93.7352 27.6845C86.1916 23.6547 78.5601 19.7832 71.0202 15.7447C70.6984 15.5232 70.6514 15.0479 70.6044 14.6754C70.415 13.1951 70.5177 11.6022 70.2071 10.1257L85.6185 1.75533V1.7578ZM67.7416 14.0739C68.2206 12.8684 68.9558 11.7235 69.7207 10.6703L70.2269 16.0541L69.4558 21.6682L67.7404 22.0568V14.0739H67.7416ZM68.608 26.6362L48.9612 37.3111C48.7867 37.4906 48.5813 39.6664 48.7026 39.8595L52.3945 41.8583L48.1147 44.2136L42.8026 41.3657C42.6404 39.6775 42.9697 37.9782 43.0501 36.29C43.1207 36.1452 43.815 35.769 44.0192 35.6502C49.5405 32.4446 55.3204 29.5274 60.9963 26.6362H68.608ZM65.1091 22.6484C65.5992 23.62 65.3294 24.6238 65.2663 25.6473C64.1512 25.703 62.9692 25.5718 61.8627 25.6473C61.2265 25.6906 60.3973 25.807 59.7921 26.052L42.3137 35.5549L35.8048 24.4653L59.0136 11.7829L65.1091 22.6484ZM39.852 1.53997C45.7631 4.4881 51.5145 7.74936 57.3415 10.8584C57.6893 11.044 58.0507 11.2668 58.4579 11.2903C58.5222 11.57 58.417 11.4908 58.3032 11.5738C58.068 11.7446 57.6299 11.9401 57.3452 12.0961C51.5022 15.2892 45.6529 18.5097 39.7715 21.6274C38.3643 22.3737 36.9385 23.1534 35.4991 23.7982C29.9692 21.1843 24.6435 18.1483 19.2262 15.3103C18.4056 14.8796 17.5034 14.3771 16.6246 14.1357L38.6948 1.9843L39.852 1.53997ZM32.1759 3.38658L37.4187 2.00905C37.2195 2.27639 36.8048 2.48308 36.5115 2.64769C29.838 6.41144 22.9813 9.87197 16.3004 13.6258L10.3138 15.2496L32.1759 3.38658ZM8.14659 16.4873L15.1382 14.507L7.21958 22.615L1.64883 26.8825C3.90015 23.4814 5.62917 19.6892 8.14659 16.4873ZM8.6627 65.1079C8.20229 64.7688 7.85822 64.3381 7.56984 63.8492C5.96087 61.1263 4.10931 57.0915 2.78129 54.157C2.15503 52.7733 1.49288 51.397 1.06341 49.9341C1.31094 43.1653 0.624036 36.0177 1.02504 29.291C1.05351 28.817 1.15376 28.3442 1.21688 27.8739L7.5884 22.9801L24.1138 31.8344C26.8404 35.9422 29.1313 40.4078 31.7539 44.6158L31.8232 68.3197L25.1287 73.9016L8.66394 65.1067L8.6627 65.1079ZM11.4277 69.5833V74.2246C12.2458 74.7927 13.1505 75.2383 14.0243 75.7123C18.8933 78.3597 23.9541 80.7149 28.7006 83.5603L33.6797 83.2435L43.4833 77.752V80.2273L35.3419 84.8958C32.5175 85.2436 29.6462 85.4008 26.797 85.2176L9.63056 76.0217L9.59467 70.6601L11.4277 69.5846V69.5833ZM7.97579 71.4027L9.07485 70.6985C9.19242 71.4609 8.96593 72.2678 8.94613 72.982C8.92632 73.7345 8.83226 75.4103 8.97707 76.0551C9.12311 76.7049 10.2457 76.9017 10.6826 77.32C10.1318 77.5812 10.0699 78.2817 9.74814 78.7495L7.95723 77.7891L7.97332 71.4027H7.97579ZM7.46711 72.3062V77.6901L1.83571 83.0739L1.77259 82.8871L7.46835 72.3062H7.46711ZM7.78519 119.205L1.17975 105.884V84.3995L7.5884 78.3089L9.67264 79.382L9.60085 89.1695C10.5378 91.6609 12.1591 93.8986 13.4265 96.2353C14.1518 97.5708 14.9105 98.6513 15.0194 100.212C15.2013 102.81 14.7298 105.439 14.8808 108.015C15.0478 110.872 17.0207 112.57 18.3301 114.971L18.4787 124.908L7.78272 119.206L7.78519 119.205ZM11.1801 123.917V127.692C11.4326 127.995 11.7581 128.189 12.0873 128.394C15.6716 130.619 19.9082 132.485 23.6397 134.54C25.3762 135.495 27.6708 137.314 29.5608 137.53C29.8652 137.565 30.1821 137.512 30.4865 137.533C30.614 138.071 29.7278 137.546 29.6214 137.903H31.9111C32.374 137.903 33.2045 137.644 33.7082 137.596C35.9843 136.661 37.9979 135.166 40.2047 134.067C40.4572 135.687 42.2097 136.139 43.4635 136.809V145.433C42.7778 145.81 41.6256 146.158 41.0711 146.691C40.4213 147.315 40.3904 148.338 39.7666 148.976L34.8889 151.77L28.4419 137.784L27.8911 137.408L34.4372 151.953C34.4273 152.093 32.6005 152.989 32.3443 152.824L25.3032 137.962C25.3193 137.754 26.823 137.294 27.0978 137.171C27.6015 136.947 26.9654 136.768 26.6238 136.81C26.0383 136.88 25.3267 137.611 24.7957 137.479L8.83845 128.855L10.3435 124.071L11.1814 123.917H11.1801ZM34.3976 174.298L32.468 174.909V153.559L34.4471 152.631C34.4211 159.849 34.5052 167.093 34.3976 174.296V174.298ZM2.96199 133.337C5.04252 130.461 7.24804 127.641 9.50927 124.908L8.29883 128.589C8.22085 128.657 7.99807 128.638 7.89658 128.738C7.23567 129.391 6.53143 130.013 5.85443 130.661C4.74919 131.721 3.70212 132.843 2.63896 133.942C2.62411 133.709 2.82956 133.516 2.95952 133.336L2.96199 133.337ZM24.8304 181.824L7.70846 172.502L1.11539 158.797L1.18346 136.26L1.58571 135.549C3.09814 134.304 4.36056 132.787 5.79378 131.464C6.20593 131.084 7.93619 129.477 8.30501 129.386C8.48695 129.342 8.63423 129.368 8.79389 129.459L24.6769 138.085L32.0188 153.402L31.947 174.945C29.8095 177.456 27.1324 179.461 24.8316 181.824H24.8304ZM28.2018 180.977C27.7166 181.366 26.1819 181.711 25.5371 181.839L32.2812 175.527L33.9532 175.034C32.317 176.936 30.442 178.669 28.6276 180.413C28.453 180.581 28.3565 180.852 28.2018 180.977ZM38.8557 175.968L38.7282 176.148C35.4694 177.825 32.3467 179.956 28.7563 180.85L29.9345 179.865C31.5633 178.648 33.1463 176.089 34.7045 174.981C35.8469 174.169 37.6935 173.737 38.9039 172.931L38.8569 175.97L38.8557 175.968ZM38.7752 152.813L38.7604 172.229L34.9434 174.168V152.447C36.4471 151.642 37.9423 150.401 39.4374 149.638C39.5388 149.586 39.6985 149.425 39.7715 149.601C39.2381 150.633 38.8618 151.636 38.7752 152.813ZM39.7752 182.403C39.7901 173.696 39.6799 164.983 39.7629 156.277C39.7703 155.48 39.7208 155.819 39.6465 155.518C39.5908 155.291 39.675 154.981 39.6465 154.736L41.9771 155.869C41.9931 160.38 42.0241 164.896 42.0006 169.409C41.9931 170.924 41.8681 172.482 41.8694 173.988C41.8706 175.768 41.6404 176.814 42.4709 178.457C42.9907 179.486 45.0069 182.2 45.0452 183.036C45.0688 183.571 44.9425 184.27 44.9623 184.877C44.992 185.765 45.2049 186.729 45.0898 187.657L40.2715 185.112C39.4089 184.324 39.774 183.335 39.7752 182.403ZM58.1274 198.571C54.5555 196.875 50.6135 194.567 47.1134 192.629C45.9487 191.984 42.7283 190.422 42.0983 189.475C41.4201 188.457 41.0315 186.881 40.3904 185.801L60.4381 196.078L59.3242 199.042C59.2723 199.081 58.2933 198.648 58.1274 198.57V198.571ZM71.1452 198.92C67.5473 198.92 63.6932 198.74 60.13 198.92C60.0668 198.924 59.7735 199.25 59.8218 198.86L61.1176 196.244L70.264 196.188C70.4546 197.088 71.1217 197.99 71.3272 198.86C71.4126 199.223 71.1564 198.92 71.144 198.92H71.1452ZM89.1459 189.074L71.7034 198.921L70.7269 196.238L70.8346 196.014L91.5036 184.069C90.7982 185.731 90.2375 187.651 89.1459 189.074ZM92.068 182.961L91.8774 183.266L70.587 195.577C70.639 195.432 70.7207 195.316 70.7145 195.147C70.3556 185.226 70.6625 175.194 70.6539 165.26L71.5363 164.286C76.3768 161.592 81.2384 158.92 86.0171 156.118C87.5716 155.207 90.2932 153.86 91.5618 152.752C91.7289 152.606 92.047 152.409 91.9158 152.173C91.3316 151.772 90.0184 150.428 90.0184 149.722V146.69C90.9158 147.889 91.8638 149.196 92.1212 150.714L92.0668 182.96L92.068 182.961ZM93.1052 174.586L93.1188 150.954C93.0582 150.01 92.8948 149.46 92.469 148.633C91.4343 146.623 90.0457 144.857 87.7906 144.215V141.059C87.7906 141.023 87.6396 140.971 87.6669 140.874C87.8798 140.713 90.5494 142.431 91.0061 142.67C93.0978 143.766 95.3169 144.732 97.5682 145.452V175.652C96.0521 175.346 94.5297 175.242 93.1052 174.586ZM125.408 157.512C123.824 160.923 122.324 164.386 120.695 167.775C120.272 168.656 119.576 170.366 119.036 171.066C118.642 171.575 117.325 172.22 116.713 172.58C111.719 175.506 106.585 178.216 101.529 181.034C101.019 181.293 100.57 181.089 100.112 181.092C97.6103 181.113 95.4654 181.086 93.1139 180.107V175.28C94.6325 175.825 96.2167 176.044 97.8182 176.207C98.7267 177.392 99.2973 178.832 100.191 180.023C100.407 180.311 100.617 180.809 101.034 180.726C101.219 180.543 99.2762 177.381 99.0299 176.976C98.6611 176.369 98.0175 175.928 98.0583 175.101V145.881L100.285 138.078C101.252 138.231 102.395 137.54 103.264 137.101C107.424 135 111.777 132.446 115.845 130.126C116.887 129.532 117.922 128.916 118.919 128.25L125.447 135.83L125.408 157.511V157.512Z" fill="#BEBDCC"/>
<path d="M90.5195 130.421V96.9925C90.4279 96.3873 90.5455 95.3737 89.6804 95.7932C84.3671 98.6485 79.1812 101.741 73.8889 104.631C73.4496 104.872 72.9347 105.175 72.4446 105.229V141.369C72.6785 141.419 72.8047 141.505 73.0622 141.442C74.1377 141.177 77.4955 139.084 78.7159 138.42C81.5996 136.849 84.6455 135.224 87.4575 133.547C88.038 133.201 90.1569 131.999 90.3574 131.496C90.4613 131.236 90.4997 130.719 90.5195 130.421ZM72.9594 105.805C77.717 102.963 82.7148 100.413 87.4823 97.5569L87.7917 98.5434L72.9409 106.589L72.9594 105.805ZM72.9533 107.099L88.0367 98.9171L88.2669 99.7464L88.1655 99.9679L72.9396 108.447L72.9533 107.099ZM73.1377 136.802L87.4266 128.937L87.9142 128.867C87.8882 129.27 88.2311 129.663 87.7855 129.915L72.9409 138.026C72.9892 137.629 72.7726 137.063 73.1377 136.801V136.802ZM73.0609 134.003L88.0367 125.897L88.2657 126.684L87.8313 127.115L72.9396 135.305L73.0609 134.004V134.003ZM72.8159 133.446C72.9149 133.283 72.8827 133.064 73.0325 132.952C73.7194 132.436 75.4855 131.725 76.3643 131.24C80.2246 129.108 84.0675 126.938 87.9142 124.783L87.7199 125.268C83.9203 127.499 80.0315 129.783 76.1167 131.859C75.2145 132.338 74.2701 132.866 73.3518 133.302C73.176 133.385 73.025 133.489 72.8159 133.446ZM87.4847 124.539L72.9396 132.457L72.9582 131.239L87.658 123.226C88.2979 123.041 88.1395 124.437 87.4835 124.539H87.4847ZM72.9409 130.724L73.0164 130.093L87.731 122.062L87.632 122.644L72.9421 130.725L72.9409 130.724ZM87.8412 121.555L73.0003 129.609C72.7354 129.442 72.8963 129.397 72.9013 129.268C72.9149 128.933 72.9669 128.594 72.9458 128.256L87.8536 120.451C87.9291 120.809 88.2286 121.314 87.8412 121.555ZM72.9409 127.877L73.0164 127.246L87.7917 119.339L87.5367 119.887C82.664 122.533 77.8111 125.226 72.9409 127.877ZM72.9396 126.64C72.9867 126.232 72.775 125.697 73.1377 125.416C73.6897 124.987 75.1501 124.45 75.8692 124.063C79.8458 121.922 83.8014 119.705 87.731 117.49C87.8969 117.648 88.4328 118.422 88.2868 118.595L72.9396 126.64ZM72.9396 124.907L73.1414 124.429L87.6667 116.616C87.9848 116.939 86.3609 117.748 86.1419 117.875C82.6219 119.901 78.7765 121.984 75.1699 123.859C74.9261 123.986 73.0238 124.997 72.9396 124.907ZM72.9396 123.917L73.0622 122.741L87.3721 115.02C88.0367 114.61 88.0825 115.272 88.2868 115.747L72.9396 123.917ZM87.835 114.247L72.9396 122.308L72.952 121.208L87.9773 113.147C88.111 113.555 88.2645 113.965 87.8338 114.247H87.835ZM72.9409 120.699L72.9607 120.224L87.9142 112.036C87.9699 112.559 87.3783 112.811 87.0082 113.046C85.1109 114.256 82.815 115.41 80.8199 116.512C78.2183 117.949 75.5734 119.321 72.9409 120.699ZM72.9409 119.709L72.9594 118.491C77.6131 116.214 81.9944 113.399 86.5936 111.024C87.434 110.591 88.0739 109.977 88.4093 111.291L72.9396 119.709H72.9409ZM72.9533 118.001L72.7032 117.544L87.6221 109.356L87.8721 109.812L72.9533 118.001ZM72.9409 116.862C72.9966 116.525 72.7961 115.79 73.0659 115.565L87.9018 107.594L88.4118 108.568L72.9421 116.862H72.9409ZM73.0622 112.716L87.5491 104.799C88.0132 104.447 88.2707 105.542 88.1481 105.709L72.9409 114.017L73.0622 112.716ZM72.8159 112.283L73.1414 111.681L87.7904 103.744C87.7756 104.258 87.2991 104.375 86.8832 104.63C83.1752 106.906 78.8656 109.123 75.0016 111.19C74.2862 111.572 73.5511 111.942 72.8146 112.281L72.8159 112.283ZM72.9409 111.169L72.9594 109.951L87.8598 101.885C88.1048 101.876 88.5207 102.583 88.4056 102.746L72.9409 111.169ZM73.0238 108.934C77.5883 106.622 81.9276 103.841 86.4699 101.494C86.6481 101.402 87.5441 100.896 87.6667 101.021L87.4649 101.499L72.8146 109.435L73.0238 108.934ZM87.6258 106.515L87.8895 106.998L72.9557 115.158L72.6921 114.675L87.6258 106.515ZM87.7484 127.678L87.9996 128.135L72.9533 136.432L72.702 135.975L87.7484 127.678ZM72.8159 139.139L73.1377 138.534L87.1308 130.868C87.2323 130.776 87.6036 130.66 87.6667 130.724C87.7013 130.76 87.7162 131.118 87.5157 131.132L72.8146 139.139H72.8159ZM89.8697 131.256C89.7361 131.715 86.8696 133.246 86.2656 133.593C82.5935 135.701 78.8557 137.775 75.1266 139.781C74.8952 139.906 73.0213 140.964 72.9396 140.873L72.9594 139.655L88.4019 131.145L88.158 130.193C89.4786 129.46 87.2038 127.59 88.8932 126.953C88.7137 126.297 88.1345 125.424 88.3165 124.752C88.3746 124.537 88.6568 124.303 88.7261 124.044C88.9724 123.125 88.0565 122.813 88.0677 122.095C88.4179 121.445 88.9303 121.47 88.4093 120.638C88.3882 120.471 88.7274 120.881 88.6593 120.513C88.5727 120.044 87.9971 119.724 88.0293 119.17C89.4378 118.313 88.335 117.644 88.0343 116.558L88.7546 115.668C88.7818 115.355 88.1939 114.722 88.2112 114.324C88.2249 113.989 88.7162 113.77 88.7571 113.566C88.8152 113.273 88.2125 112.455 88.2731 111.848C88.3004 111.577 88.8016 111.578 88.7905 110.979C88.7855 110.746 87.9749 109.274 88.0392 109.191C89.6531 108.495 87.9959 107.273 88.0479 106.395C88.0677 106.061 88.6383 105.816 88.7657 105.511L88.1617 103.93L88.4093 103.992C88.0504 103.268 88.6878 103.144 88.7608 102.922C89.0553 102.029 87.9909 101.152 88.0343 100.715C88.0466 100.592 88.3672 100.621 88.5021 100.493C89.2385 99.7897 88.2249 98.2872 87.8239 97.6126L88.1011 97.3069L88.4068 97.552C88.4278 96.7834 89.3747 96.6559 89.8314 96.1942C90.0108 96.3118 90.0022 96.4319 90.0232 96.6188C90.2386 98.5867 89.9093 100.72 89.8871 102.683C89.7831 112.205 89.9984 121.732 89.8673 131.254L89.8697 131.256Z" fill="#BEBDCC"/>
<path d="M28.8339 65.208C28.9911 65.0384 29.1173 64.7823 29.2795 64.6003L29.3735 45.3867C27.6321 41.3767 25.4798 37.5077 23.4265 33.6351C18.8818 31.4221 14.5598 28.7475 10.0683 26.4479C9.78492 26.3031 9.07821 25.8699 8.83563 25.9528L3.12873 30.8998L2.79332 31.5545L2.75867 49.9723C3.43691 52.3251 4.89736 54.5331 6.04592 56.7102C6.96922 58.459 7.68459 60.4851 8.94949 61.9752C12.7702 63.9778 16.503 66.1882 20.3361 68.1636C20.815 68.4099 22.8498 69.5151 23.2173 69.4371C23.3176 69.4161 23.7743 69.1079 23.9166 69.0163C24.8189 68.4359 28.1891 65.9036 28.8351 65.2092L28.8339 65.208ZM23.3015 68.7787C22.7656 68.9681 21.2779 68.0844 20.7074 67.791C17.5018 66.1437 14.1168 64.3157 10.9731 62.5495C9.99285 61.9987 9.24158 61.7908 8.64131 60.797C6.69446 57.5753 5.18079 53.6148 3.28839 50.3077L3.25373 32.0149L3.41958 31.3751C5.07435 30.0966 6.4494 28.4938 8.08312 27.1917C8.33313 26.9925 8.85048 26.4949 9.10668 26.5308C13.1514 28.7846 17.2703 30.9035 21.3262 33.1375C22.346 33.6994 22.8559 33.6041 23.4971 34.6796C25.4513 37.9607 26.8759 41.8569 28.8772 45.1528C29.0096 48.3646 28.7448 51.5961 28.7485 54.8004C28.7522 57.6743 29.1804 61.1695 28.8871 63.9617C28.8426 64.3825 28.772 64.4963 28.4935 64.8058L23.3015 68.7799V68.7787Z" fill="#BEBDCC"/>
<path d="M29.3476 171.974L29.3179 152.996C27.3624 149.017 25.6136 144.286 23.3734 140.499C22.6679 139.305 22.3721 139.622 21.2459 139.038C17.8014 137.25 14.3731 135.342 10.9732 133.468C10.3791 133.141 9.34071 132.214 8.67237 132.354C8.28622 132.436 7.04112 134.047 6.66487 134.438C6.04109 135.086 2.87142 138.158 2.76993 138.712C2.60037 145.512 2.47412 152.408 2.82686 159.189C3.42837 160.468 4.12641 161.704 4.72668 162.983C5.46433 164.553 7.49659 169.659 8.57831 170.518L22.7311 178.101C24.4873 176.583 26.3438 175.102 28.0147 173.487C28.3414 173.171 29.2635 172.349 29.3489 171.974H29.3476ZM22.7261 177.493L21.5912 177.061L8.76396 170.086C6.72676 166.53 5.24279 162.678 3.34297 159.046C3.06944 157.452 3.14742 155.794 3.13009 154.184C3.07316 149.075 3.37143 143.975 3.2848 138.858L8.79243 132.969L22.6952 140.311C24.2509 143.902 26.2559 147.298 27.8711 150.854C28.1434 151.454 28.7152 152.533 28.8229 153.12C29.1929 155.147 28.7647 158.241 28.7511 160.359C28.7313 163.37 28.7882 166.422 28.7498 169.396C28.7375 170.296 28.7932 171.2 28.73 172.099L22.7274 177.493H22.7261Z" fill="#BEBDCC"/>
<path d="M28.2572 175.712C26.5306 177.227 24.8994 178.893 23.21 180.436L23.3102 180.851C23.3535 180.887 23.7211 180.615 23.8065 180.544C25.2237 179.381 26.866 177.908 28.2002 176.646C28.8191 176.061 29.4466 175.481 29.7436 174.663C29.5802 174.528 28.4552 175.538 28.2572 175.712Z" fill="#BEBDCC"/>
<path d="M112.213 83.1764C109.295 84.7792 106.419 86.4661 103.514 88.0912L97.6993 99.2327L97.7476 118.106C97.8602 118.462 99.2452 119.476 99.614 119.829C101.047 121.198 102.407 122.649 103.754 124.104C103.905 124.241 104.099 124.403 104.313 124.402C104.636 124.399 106.831 123.199 107.305 122.946C111.023 120.965 114.678 118.808 118.319 116.695C120.107 112.79 122.348 109.075 123.777 105.011L123.801 88.2038C123.802 86.8733 124.02 85.5342 123.745 84.1876L118.283 80.0092C117.917 79.9696 112.982 82.7531 112.213 83.1752V83.1764ZM123.135 84.4277C123.31 84.6641 123.433 85.8448 123.44 86.2248C123.553 92.3376 123.098 98.5297 123.302 104.661C121.953 108.737 119.618 112.427 117.871 116.31C113.387 118.852 108.919 121.469 104.307 123.787L98.3046 117.922C98.0979 111.738 98.1214 105.441 98.3169 99.2315L103.795 88.5578L117.956 80.6181L118.404 80.7407L123.135 84.4277Z" fill="#BEBDCC"/>
<path d="M117.529 130.698C116.195 131.156 113.482 132.897 112.089 133.673C109.15 135.312 105.943 137.031 103.1 138.793C102.624 139.088 101.752 139.479 101.521 139.937C100.635 141.697 100.319 144.742 99.5791 146.66L99.667 174.109C99.6125 174.777 102.094 178.771 102.355 178.857C102.71 178.973 104.954 177.676 105.449 177.406C109.79 175.04 114.056 172.483 118.308 169.967L123.722 157.806L123.804 137.844L118.09 130.625C117.919 130.526 117.699 130.641 117.528 130.699L117.529 130.698ZM102.093 140.014L113.286 133.695L113.258 164.174C112.931 164.973 112.714 165.788 112.129 166.449L100.168 173.3L100.038 147.984C100.23 145.235 101.309 142.63 102.092 140.012L102.093 140.014ZM123.254 157.585C121.293 161.573 119.653 165.761 117.686 169.715L102.397 178.374C102.304 177.555 99.8081 174.4 100.183 173.809C100.931 173.499 101.655 173.103 102.355 172.702C105.305 171.015 109.117 169.207 111.818 167.313C113.13 166.393 113.663 165.188 113.788 163.589C113.624 154.185 113.983 144.76 113.788 135.359C113.776 134.827 113.445 133.794 113.783 133.386C113.854 133.299 114.182 133.14 114.317 133.054C114.713 132.805 117.595 131.198 117.788 131.235L123.309 138.09L123.253 157.585H123.254Z" fill="#BEBDCC"/>
<path d="M119.907 27.2979L103.18 36.3935C102.644 36.7017 102.129 37.1014 101.873 37.6856C101.448 45.4916 101.724 53.3867 101.737 61.1593C101.739 62.9799 101.437 65.4329 101.649 67.1768C101.772 68.1979 103.457 67.0828 104.009 66.8018C108.317 64.6136 113.197 61.8487 117.332 59.3325C118.634 58.5404 120.252 57.9017 120.349 56.1603L120.283 27.5021C120.23 27.4142 120.012 27.2966 119.908 27.2979H119.907ZM104.045 36.516C108.374 33.9491 112.97 31.8067 117.31 29.2559L118.361 29.9787L102.272 39.0124C102.005 37.4678 102.937 37.1732 104.045 36.516ZM117.332 31.2312L118.485 31.8364L102.272 40.9927L102.348 39.4951L117.332 31.2312ZM102.469 41.3764L117.414 33.0914C117.726 33.3822 118.043 33.5679 118.485 33.5691L102.149 42.6029L102.469 41.3776V41.3764ZM102.394 43.0336L117.681 34.558C117.849 35.0395 118.268 35.058 118.606 35.3613L102.147 44.3331L102.394 43.0336ZM118.608 41.364L102.149 50.2752L102.27 48.7269L117.741 40.2501C117.655 40.9692 118.537 40.8417 118.608 41.364ZM102.274 48.1712L102.292 46.8271L117.608 38.526C117.689 39.1226 118.342 38.9765 118.61 39.3825L102.274 48.1712ZM102.149 46.3147L102.292 44.8505L117.434 36.417C117.721 36.8774 118.051 37.1881 118.608 37.2834L102.147 46.3147H102.149ZM102.359 50.7641L117.558 42.2341L118.61 42.9754L102.15 52.1329C102.176 51.753 102.032 51.0252 102.359 50.7641ZM102.211 52.7518C102.302 52.5995 103.974 51.675 104.292 51.4918C108.629 48.9955 113.116 46.7441 117.434 44.2119C117.602 44.7094 118.06 44.5621 118.485 44.7082L102.149 53.8644C102.191 53.5476 102.05 53.0204 102.211 52.7518ZM118.732 46.6884L102.147 55.8447L102.272 54.4251L117.558 45.827C117.846 46.2825 118.175 46.5968 118.731 46.6897L118.732 46.6884ZM102.175 56.6628L117.556 47.9261C117.808 48.3345 118.12 48.5907 118.608 48.6687L102.147 57.825C102.368 57.4376 102.263 57.0712 102.175 56.664V56.6628ZM102.15 61.538L102.291 60.257L117.34 51.7765L117.532 51.7728C117.847 52.0636 118.163 52.2555 118.61 52.2555L102.15 61.5368V61.538ZM117.681 53.5365L118.608 53.8669L102.149 63.0232L102.266 62.0999C107.399 59.2347 112.514 56.3373 117.681 53.5365ZM102.272 59.5577L102.292 58.3399L117.663 49.7937L118.732 50.4014L102.272 59.5577ZM102.396 63.5814C102.567 63.3735 104.834 62.1445 105.282 61.8883C109.307 59.585 113.47 57.5081 117.434 55.1033C117.543 55.7024 117.82 55.6207 118.361 55.5984L102.147 64.7547C102.389 64.3958 102.133 63.9019 102.396 63.5814ZM119.847 56.0304C119.847 56.1628 119.446 57.2284 119.335 57.3745C119.157 57.6084 118.735 57.825 118.476 58.0007C114.402 60.7446 108.635 63.668 104.213 66.0159C103.99 66.1347 102.227 67.0691 102.15 66.9837L102.225 65.3624L117.41 56.9351C118.373 56.3126 119.636 55.6083 117.87 54.9165L119.095 54.0328L118.241 53.1837C120.48 52.0673 117.983 51.8891 117.993 51.451L119.091 50.6873C119.332 49.9485 118.238 49.8346 118.237 49.472C118.783 49.3197 119.436 49.0326 118.928 48.4088C118.764 48.2083 118.028 47.9311 118.116 47.7392C118.295 47.3456 119.542 47.4521 118.987 46.4929C118.85 46.2552 118.134 45.832 118.115 45.7552C118.021 45.3777 119.136 45.4446 118.993 44.8901C118.993 44.7304 118.957 44.6364 118.865 44.5101C118.721 44.3121 118.016 44.1166 118.115 43.9012C118.221 43.6698 119.094 43.4965 119.107 43.0336C119.107 42.5917 118.12 42.3096 118.116 42.1672C118.403 41.7526 119.125 41.7699 119.11 41.1833C119.059 40.6783 117.992 40.3058 117.992 40.187C118.233 39.8961 119.179 39.6944 119.08 39.2154L117.991 38.3317L119.084 37.7549C119.3 37 118.462 36.7103 117.988 36.3489C117.97 35.9578 119.021 35.7623 119.087 35.6546C119.43 35.1063 118.232 34.7424 118.236 34.3711L119.095 33.6446C119.03 33.2498 117.917 33.0246 117.988 32.7634C118.028 32.6174 119.11 32.4169 119.11 32.0208C119.11 31.5802 118.113 31.2819 117.99 31.027C117.886 30.8116 118.839 30.6284 118.956 30.4502C119.309 29.845 117.618 29.1482 117.742 28.9873C118.477 28.7868 119.048 28.0887 119.846 28.1197V56.0291L119.847 56.0304Z" fill="#BEBDCC"/>
<path d="M76.9521 146.319L77.1477 149.785C77.2913 149.934 78.8025 149.092 79.0871 148.94C80.2988 148.288 81.4709 147.518 82.6541 146.814L82.5922 143.226L76.9521 146.319ZM82.3137 146.66L77.519 149.29V146.877C77.519 146.843 77.4039 146.762 77.4163 146.648L82.3459 143.721C82.3261 144.564 82.3731 145.414 82.3459 146.258C82.3434 146.342 82.4981 146.504 82.3137 146.66Z" fill="#BEBDCC"/>
<path d="M75.848 147.064L72.0088 149.164C71.734 150.32 72.3195 151.489 71.9494 152.63C72.2031 152.672 72.3925 152.586 72.6165 152.494C72.9593 152.354 75.8703 150.692 75.9706 150.526C76.0585 149.751 76.0721 148.886 76.0362 148.108C76.0275 147.916 76.0077 147.074 75.848 147.064ZM75.6624 150.217L72.4445 152.135V149.474L75.6624 147.68V150.217Z" fill="#BEBDCC"/>
<path d="M83.46 146.317L84.9439 145.206C84.5008 144.957 83.2706 146.123 83.46 146.317Z" fill="#BEBDCC"/>
<path d="M34.573 96.0703L34.3156 96.8649L34.3453 122.347L34.6943 122.554C34.5755 122.148 34.7958 121.681 34.8193 121.379V96.3785C34.8193 96.3587 34.698 96.0159 34.573 96.0703Z" fill="#BEBDCC"/>
<path d="M35.5621 109.313V122.123L37.1662 122.998L37.4186 122.865V110.241C37.2355 109.935 35.8035 109.078 35.5621 109.313ZM36.9236 122.432L35.9334 121.751V109.808L36.9236 110.489V122.432Z" fill="#BEBDCC"/>
<path d="M37.1116 108.45C37.3467 108.025 37.3777 104.789 37.3034 104.171L37.2737 104.01L35.5608 103.248V107.642C35.9036 107.962 36.3999 108.314 36.8418 108.469C36.9519 108.507 37.0002 108.652 37.1116 108.45ZM36.7997 107.951L36.015 107.424C36.145 106.93 35.9333 106.444 35.9333 106.033C35.9333 105.388 36.2786 104.541 35.9333 103.868L36.7997 104.238V107.951Z" fill="#BEBDCC"/>
<path d="M36.1488 99.5574C35.0485 99.774 35.4372 102.007 36.7095 101.742C37.8865 101.498 37.6563 99.2603 36.1488 99.5574ZM36.7169 101.255C36.0548 101.471 35.6451 100.21 36.1352 100.045C36.9657 99.7653 37.3221 101.059 36.7169 101.255Z" fill="#BEBDCC"/>
<path d="M58.9503 95.6394C59.2362 95.783 60.4615 96.4786 60.6855 96.3164C60.7127 96.2199 60.5617 96.1679 60.5617 96.132V89.5105L45.5859 81.8369V88.3347C46.8929 89.2394 48.315 90.0055 49.7111 90.7692C52.7186 92.4153 55.8895 94.0997 58.9503 95.6394ZM46.0822 82.4545L52.127 85.5685L52.2062 87.5314C52.4043 87.8582 54.137 88.1181 54.0046 88.8892C54.2224 88.9015 54.1432 88.0686 54.1147 88.0352C52.7817 87.805 52.0825 87.2443 52.455 85.7962L60.0679 89.7555V95.5726L46.0822 88.2703V82.4533V82.4545Z" fill="#BEBDCC"/>
<path d="M45.4634 148.484C45.6837 148.73 45.9696 148.891 46.2468 149.062C49.6195 151.13 53.8969 153.23 57.4663 155.046C57.8636 155.249 60.2473 156.533 60.4392 156.343V148.732L45.4634 140.996V148.484ZM46.9486 142.11L60.0679 149.103V150.897L46.9486 144.09V142.11ZM45.9584 141.615C47.1825 141.595 46.2097 143.85 46.6998 144.401L60.0679 151.331V154.363C57.6544 153.035 55.2125 151.734 52.7681 150.462C51.3176 149.707 49.7123 149.043 48.3075 148.239C47.1974 147.603 46.9894 147.53 47.258 146.071L59.2374 152.285L59.8216 152.381L59.3166 151.836L47.1144 145.593L46.8261 145.761V147.741C47.3595 148.173 47.9994 148.49 48.5996 148.814C51.278 150.264 54.0182 151.67 56.7249 153.066C57.4787 153.454 58.8958 154.296 59.6161 154.521C59.8092 154.582 59.8872 154.573 60.0691 154.485V155.847L45.9609 148.421V141.614L45.9584 141.615Z" fill="#BEBDCC"/>
<path d="M13.4077 69.7073V72.4921L26.6458 79.5567C26.7733 79.6074 26.9169 79.4552 26.959 79.3586C27.0629 79.1185 27.0815 77.1444 27.0208 76.8264C26.9887 76.6556 26.9255 76.5442 26.7721 76.4563L13.8694 69.8038L13.4102 69.7061L13.4077 69.7073ZM26.6508 78.9898L13.779 72.3064V70.2024L26.6508 76.9477V78.9898Z" fill="#BEBDCC"/>
<path d="M26.8983 131.899L12.7888 124.535V126.454L26.8983 133.818V131.899ZM26.345 133.196L13.2975 126.379L13.2839 125.155L26.5059 132.106C26.5369 132.155 26.6594 133.304 26.345 133.196Z" fill="#BEBDCC"/>
<path d="M100.749 130.633L100.291 130.602V132.396C100.291 132.427 99.9693 132.789 100.344 132.698C100.802 132.588 101.57 132.135 102.026 131.904C105.676 130.056 109.187 127.896 112.792 125.96V124.042L108.501 126.249L100.749 130.634V130.633ZM112.299 125.714L100.664 132.086L100.875 130.967L112.419 124.537L112.298 125.714H112.299Z" fill="#BEBDCC"/>
<path d="M69.2277 52.8125L61.8054 52.8806C61.8129 53.6937 61.0257 54.3311 61.0529 55.1616C61.0765 55.9005 61.8624 57.0107 62.0431 57.7706C64.0221 57.9798 66.1843 58.0491 68.1807 57.9563C68.3626 57.9476 69.2203 57.9154 69.2859 57.8313C69.4196 57.1233 70.255 55.82 70.2265 55.169C70.2154 54.919 69.3688 52.8991 69.2277 52.8137V52.8125ZM68.9616 57.4377L62.3079 57.4414C62.2733 56.7173 61.5901 55.6802 61.5591 55.0304C61.5344 54.4982 62.0517 53.893 62.1904 53.3905L69.0842 53.3868L69.7934 55.2903L68.9604 57.4377H68.9616Z" fill="#BEBDCC"/>
<path d="M91.6273 42.3539C91.5382 41.667 91.355 41.0246 91.0295 40.4157C90.9379 40.2436 89.8599 38.6347 89.6482 38.8896C89.4255 40.532 89.3549 42.6361 91.6273 42.3539ZM90.9069 41.0333C91.022 41.3365 91.3018 41.7387 90.9478 41.9801C89.8723 41.4801 90.0567 40.631 89.8958 39.6322C90.1272 39.376 90.85 40.8848 90.9069 41.0333Z" fill="#BEBDCC"/>
<path d="M39.7739 43.2195C40.1799 43.576 41.102 42.2467 41.2294 41.8965C41.3668 41.519 41.6094 39.1786 41.378 39.0152C41.1836 38.8778 40.6923 39.6068 40.5859 39.7677C39.9274 40.7591 39.4806 42.0376 39.7739 43.2195ZM41.1304 39.7565C40.9015 40.7071 41.1614 42.1985 40.0178 42.6019C39.795 42.3445 40.7492 40.0202 41.1304 39.7565Z" fill="#BEBDCC"/>
<path d="M22.6286 35.2991C18.7052 33.2742 14.8771 31.0316 10.9351 29.0464C10.6034 28.8793 9.50062 28.227 9.22214 28.3916C9.18625 28.4127 8.89787 28.8793 8.70603 29.0513C7.50797 30.1194 6.22451 31.1145 4.99426 32.1455L4.86802 32.3905C4.61677 38.2707 4.80614 44.1954 4.7393 50.0954C5.74677 53.6129 7.82976 57.0326 9.56745 60.2431L22.735 67.2124L27.0248 63.7061L27.3911 63.2061L27.3986 45.6299L27.151 44.516L22.6286 35.3003V35.2991ZM26.8973 45.5717L6.12549 34.6617L6.10693 33.5676L26.5767 44.4714C26.7921 44.5494 26.9617 45.5012 26.8973 45.573V45.5717ZM26.8985 46.0668V48.4184L5.97821 37.2187L6.16757 35.0528L26.8998 46.0668H26.8985ZM9.8187 29.0389C13.5094 31.065 17.3833 32.8274 21.0407 34.908C21.855 35.3709 22.6496 35.6134 22.813 36.6617L9.2011 29.2988C9.37438 29.0922 9.53651 28.9053 9.81746 29.0402L9.8187 29.0389ZM9.04021 29.8261L22.8575 37.1741L23.8044 38.6395L8.21097 30.0427C8.42261 29.7333 8.69613 29.6293 9.04021 29.8249V29.8261ZM7.84462 30.5279L23.1447 38.7435C23.4888 38.9811 23.8019 39.0777 24.0828 39.4143C24.9826 40.4911 25.4913 42.6644 26.4022 43.839L6.00296 33.0539C5.67251 31.7556 6.92998 31.1504 7.84338 30.5279H7.84462ZM5.60938 38.642H5.23932V37.2806C5.85939 37.3066 5.54131 38.2101 5.60938 38.642ZM5.23932 33.1331C5.23932 32.8992 5.27893 32.3472 5.61062 32.4524V36.908H5.23932V33.1331ZM5.23932 39.0121L5.74429 39.2237L5.82226 39.4638C5.84207 39.5529 5.73439 39.6495 5.73439 39.694V43.0976H5.23932V39.0133V39.0121ZM5.23932 43.4677L26.7005 54.7429C26.9592 54.8382 27.0483 55.8159 26.7166 55.7182L6.10074 44.7722L5.67251 43.8415C5.17868 44.2549 5.6886 44.766 5.73068 45.1522C5.81979 45.9703 5.83216 49.0471 5.60443 49.7105C5.53389 49.9147 5.51408 50.0694 5.23932 50.0261V43.4665V43.4677ZM6.22946 43.4058V39.6309L26.8985 50.4605V54.3592L6.22946 43.4058ZM6.16634 45.3254L26.8985 56.2157V59.6193C26.8985 59.6465 27.083 59.7579 27.0223 59.8037L26.479 59.6676L6.35817 48.9716C5.92375 48.7266 6.20965 48.3689 6.19728 48.0211C6.1651 47.1312 6.05123 46.2128 6.16757 45.3254H6.16634ZM8.3929 57.0845C7.51292 55.5634 6.07227 52.8282 5.46581 51.2242C5.35071 50.9209 5.071 50.5175 5.42497 50.2774C6.04504 50.2959 7.7914 54.1537 8.14537 54.8567C8.60455 55.7689 9.36324 56.5474 9.31373 57.6873L8.83104 57.7702C8.66519 57.5549 8.52905 57.3185 8.39414 57.0845H8.3929ZM22.2325 66.5193L9.94865 59.8606C9.59468 59.727 8.80505 58.0871 8.95233 57.9497C9.61077 57.9014 10.2284 58.3371 10.8113 58.6267C14.7607 60.5958 18.8921 62.8558 22.7734 64.9821C23.1459 65.1863 23.6447 65.4363 23.9281 65.7445C23.3155 65.8745 22.8972 66.8238 22.2338 66.5193H22.2325ZM24.0903 65.2841C23.5222 65.0799 22.3043 64.2123 21.6582 63.8694C17.7769 61.81 13.8622 59.8173 10.0204 57.6848C9.75805 57.5759 9.46844 56.6006 9.57117 56.4645L25.0383 64.695C24.7784 64.919 24.49 65.4277 24.0903 65.2841ZM26.8354 63.2704C26.7872 63.3484 25.4641 64.3831 25.3737 64.3695L9.27784 55.8295L6.72453 51.1437L26.8775 61.8062C26.9456 61.9152 26.9282 63.1194 26.8354 63.2716V63.2704ZM26.8552 61.3706L5.64156 50.1387L6.08094 49.3095L27.2946 60.5413L26.8552 61.3706ZM26.8577 49.9778L5.60072 38.7435L6.05123 37.8908L27.3082 49.1251L26.8577 49.9778Z" fill="#BEBDCC"/>
<path d="M22.1666 141.706C22.0651 141.369 22.0391 141.101 22.0688 140.75L21.8213 141.368C17.8756 139.43 14.1316 137.058 10.1909 135.115C9.84436 134.944 9.34063 134.542 9.0077 134.8C7.53858 136.506 5.40113 137.864 4.52486 139.974C4.52114 145.507 4.36644 151.014 4.5001 156.534C4.53723 158.068 4.32064 158.849 4.93081 160.426C6.03234 163.276 8.02499 166.249 9.25399 169.098C13.2244 171.122 17.0587 173.55 21.0775 175.468C21.5143 175.677 21.8498 175.969 22.3114 175.583C23.934 174.081 25.8759 172.855 27.3363 171.203L27.3623 152.722C27.1136 152.143 26.8809 151.556 26.6309 150.978C25.4093 148.155 23.0008 144.467 22.1654 141.706H22.1666ZM24.5702 147.842C24.6234 147.942 24.7793 148.105 24.6085 148.175L7.8381 139.079C8.09677 138.791 8.48911 138.593 8.45817 138.15L9.24533 138.414L23.6469 146.104C23.7273 146.186 24.4266 147.571 24.5702 147.842ZM23.3077 145.328L8.95324 137.716L8.82823 137.161C8.87403 137.11 9.78495 137.539 9.92605 137.609C13.7913 139.499 17.6516 141.749 21.4673 143.767C22.257 144.184 23.1444 144.19 23.3077 145.328ZM9.28617 135.321L21.2965 141.71L22.4401 143.597L8.33193 136.234L9.28493 135.322L9.28617 135.321ZM6.59672 138.086C6.85415 137.813 7.96929 136.583 8.26881 136.666C8.84804 136.826 7.69205 138.622 7.52992 138.622L6.88386 138.294L6.5336 138.773L6.90985 139.141L24.6605 148.742C25.4514 149.366 25.9452 150.976 26.4007 151.889L5.04963 140.502C4.73526 139.994 6.20685 138.498 6.59548 138.086H6.59672ZM4.99146 141.12C6.07937 141.65 6.31824 143.4 4.99146 143.843V141.12ZM5.00012 145.147C5.01497 144.895 4.77363 144.25 5.05087 144.341L26.8982 155.85V159.315L4.85779 147.376C4.78105 146.621 4.95433 145.885 5.00012 145.147ZM6.22789 150.403L5.79471 148.548L26.8982 159.747V161.789L4.99146 150.155V148.051C5.64742 148.372 5.68703 149.527 5.4989 150.142L6.22913 150.402L6.22789 150.403ZM5.05087 150.653L26.8982 162.348V165.009L5.24147 153.31C4.67585 152.804 4.9271 151.643 4.90358 150.933C4.8974 150.763 4.74764 150.606 5.05087 150.653ZM26.897 166.245L7.0101 155.625C6.51874 155.3 6.06699 155.037 6.1066 154.363L26.8784 165.584L26.897 166.245ZM4.86893 153.622C5.02116 153.793 5.47167 154.027 5.57316 154.153C5.88629 154.542 5.76253 155.985 5.51499 156.435C5.2885 156.846 5.0323 156.541 4.98651 156.165C4.88254 155.324 4.85284 154.47 4.86893 153.623V153.622ZM7.28115 163.643L5.48776 160.429C5.53727 160.38 6.61033 161.03 6.71677 161.117C7.18956 161.509 8.03365 163.189 7.28115 163.645V163.643ZM21.7916 175.264C18.4932 173.459 15.0797 171.85 11.7949 170.024C11.1055 169.64 9.89263 169.116 9.44707 168.535L7.71557 165.007L23.9278 173.67C23.3671 173.785 22.226 175.325 21.7928 175.263L21.7916 175.264ZM24.0503 173.124L7.47546 164.187L7.9631 163.027L25.2868 172.372C24.965 172.612 24.4563 173.208 24.0503 173.124ZM25.7398 172.177C25.3326 171.831 24.8511 171.549 24.382 171.3C19.3893 168.645 13.9287 166.073 9.11661 163.173C8.49035 162.796 7.68587 162.49 7.5918 161.667L26.2794 171.57C26.3809 171.711 25.9254 172.209 25.7398 172.177ZM26.8982 171.134L26.6457 171.266L5.36647 159.867C4.93824 159.507 4.78724 157.563 4.92958 156.963L26.8995 168.719V171.133L26.8982 171.134ZM26.8982 168.042C26.8759 168.214 26.9663 168.256 26.7138 168.224C19.7952 164.34 12.6997 160.765 5.73282 156.961L6.10536 155.602L26.871 166.766C26.9329 166.873 26.923 167.844 26.897 168.043L26.8982 168.042ZM26.7138 155.352L5.61029 143.969C6.00511 143.921 6.16106 143.586 6.23779 143.233L6.6883 143.322C12.5846 146.851 19.4338 149.54 25.2472 153.106C25.944 153.533 26.0046 153.856 26.4601 154.248C26.5863 154.356 26.8388 154.337 26.8784 154.381C26.9143 154.419 27.0232 155.477 26.7126 155.352H26.7138ZM26.9601 153.992L26.4527 153.262L6.47419 142.546L6.1066 141.739C12.5202 145.18 18.9945 148.515 25.4105 151.952C25.6704 152.092 26.6767 152.467 26.746 152.535C26.9415 152.728 27.1309 153.709 26.9601 153.991V153.992Z" fill="#BEBDCC"/>
<path d="M103.999 90.3087L99.7316 98.6654L99.6932 117.153L104.61 121.878C104.889 121.941 106.033 121.305 106.359 121.135C109.993 119.26 113.439 116.978 117.13 115.197C119.058 112.208 120.428 108.792 121.987 105.574C121.933 99.0305 121.955 92.4301 121.948 85.8617C121.88 85.5003 120.638 84.608 120.274 84.3171C119.932 84.0436 118.061 82.5856 117.825 82.6067L103.999 90.3087ZM121.214 85.7293C121.32 85.8456 121.445 85.9311 121.453 86.1093L121.459 105.293C120.007 107.945 118.803 111.918 117.148 114.349C117.022 114.535 116.912 114.802 116.63 114.759L116.568 114.388L116.434 114.89L104.92 121.196L104.555 121.078L100.17 116.675L100.164 98.9761L104.31 90.7456L117.805 83.197C118.018 83.197 120.964 85.4595 121.213 85.7305L121.214 85.7293Z" fill="#BEBDCC"/>
<path d="M116.876 169.157C116.513 168.97 113.92 168.108 113.784 168.227C113.748 168.527 113.994 168.622 114.211 168.727C114.718 168.975 116.22 169.426 116.819 169.586C116.944 169.619 117.198 169.798 117.248 169.524C117.29 169.299 117.021 169.231 116.876 169.157Z" fill="#BEBDCC"/>
<path d="M52.356 89.5178L52.1456 88.769L59.0283 92.4709L59.3216 92.2951C59.2114 92.1515 59.0617 92.0624 58.9194 91.9572C57.2336 90.7121 54.5838 89.7665 52.7236 88.6229C52.5218 88.4992 52.3783 88.3098 52.2087 88.1514C51.9278 88.1452 52.0181 89.4262 52.0429 89.6762L59.4491 93.5934L59.1644 93.1986L52.3572 89.5178H52.356Z" fill="#BEBDCC"/>
<path d="M50.413 88.7666L50.6123 86.347C50.5714 86.097 48.1741 84.7838 47.6901 85.0536C47.6146 84.6551 48.0614 84.0771 47.4438 84.0635V88.024C47.9612 88.0451 50.2682 89.6466 50.5368 89.3842L50.3957 88.9114C50.0751 88.9213 47.9092 87.8767 47.835 87.7567C47.7335 87.5945 47.8609 87.0797 47.8139 86.8482L50.1098 88.1428L50.413 88.7666ZM47.8151 86.6626V85.3024L50.1457 86.3123L50.1061 87.7765C49.3808 87.3916 48.6605 86.6378 47.8151 86.6626Z" fill="#BEBDCC"/>
<path d="M52.1286 90.371L51.9421 90.7119L59.1585 94.6595L59.345 94.3185L52.1286 90.371Z" fill="#BEBDCC"/>
<path d="M58.9886 90.6506C58.0578 90.0738 56.7608 89.5057 55.7347 89.1406C56.6605 90.0602 58.0356 90.5219 59.199 91.1197C59.2312 90.8338 59.225 90.7991 58.9873 90.6518L58.9886 90.6506Z" fill="#BEBDCC"/>
<path d="M116.217 86.0667C112.42 88.1992 108.568 90.2414 104.785 92.3949C104.498 92.9048 104.175 93.4061 103.899 93.9222C103.277 95.0856 102.575 97.1166 101.884 98.0956C101.757 98.2738 101.642 98.41 101.407 98.4236L101.665 98.7231L101.657 115.933C101.73 116.313 103.89 118.109 104.334 118.516C104.587 118.747 104.753 119.366 105.244 119.164L115.875 113.2L119.79 105.728L119.85 87.0964C119.855 86.985 119.785 86.9281 119.722 86.8526C119.631 86.7412 117.754 85.3959 117.622 85.3526C117.284 85.2436 116.577 85.8649 116.218 86.0667H116.217ZM119.358 87.5853V105.048C118.362 107.805 116.833 110.5 115.269 112.965C112.717 114.459 110.155 115.973 107.553 117.378C107.168 117.586 105.254 118.679 105.02 118.569L102.151 115.684L102.144 99.0969C102.879 96.9272 104.05 94.6388 105.305 92.7278L117.203 86.0543C117.343 85.9664 117.456 85.9231 117.623 85.9689C117.805 86.0197 119.394 87.2388 119.358 87.5841V87.5853Z" fill="#BEBDCC"/>
<path d="M106.661 96.4033L106.741 96.4307L106.747 96.4336C106.924 96.5217 107.011 96.7329 106.933 96.9248C106.791 97.2722 106.663 97.6296 106.551 97.9883C106.55 98.0172 106.546 98.0443 106.54 98.0684V98.0703C105.784 101.006 106.185 103.867 107.61 105.93L107.86 106.27C107.901 106.321 107.944 106.369 107.985 106.419C109.675 105.21 111.847 103.296 113.998 101.107C115.116 99.9693 116.173 98.8176 117.142 97.6826L117.143 97.6816C117.219 97.5926 117.328 97.5469 117.437 97.5469C117.52 97.5469 117.603 97.5739 117.673 97.6279H117.674C117.819 97.7406 117.86 97.9337 117.788 98.0918C117.806 98.1717 117.8 98.2568 117.765 98.334L117.729 98.3975C116.583 100.021 114.995 101.887 113.259 103.654C111.799 105.14 110.353 106.438 109.051 107.435C110.075 108.202 111.294 108.604 112.609 108.604C113.481 108.604 114.362 108.43 115.232 108.081L115.604 107.921C115.662 107.893 115.719 107.885 115.766 107.885C115.868 107.885 115.966 107.925 116.039 107.998L116.103 108.082L116.104 108.083C116.2 108.256 116.15 108.479 115.979 108.592L115.98 108.593C115.882 108.658 115.782 108.718 115.684 108.777C115.654 108.849 115.606 108.913 115.536 108.957L115.535 108.956C114.402 109.678 113.211 110.123 111.997 110.269V110.268C111.715 110.302 111.432 110.319 111.155 110.319C109.601 110.319 108.186 109.789 107.05 108.784C106.423 109.13 105.888 109.329 105.475 109.329C105.262 109.329 105.089 109.277 104.953 109.189C104.819 109.103 104.735 108.991 104.684 108.893V108.892C104.571 108.673 104.558 108.404 104.604 108.121C104.607 107.992 104.624 107.857 104.656 107.718L104.657 107.715C104.699 107.542 104.854 107.418 105.033 107.418H105.038C105.194 107.421 105.332 107.517 105.39 107.658L105.409 107.722L105.41 107.724C105.411 107.727 105.412 107.731 105.412 107.733C105.423 107.736 105.442 107.738 105.472 107.738C105.585 107.738 105.761 107.697 105.998 107.603C104.891 106.01 104.407 103.912 104.615 101.644C104.775 99.9024 105.337 98.154 106.241 96.5869L106.304 96.5049C106.376 96.4335 106.474 96.3937 106.575 96.3936C106.604 96.3936 106.633 96.397 106.661 96.4033Z" stroke="#BEBDCC" stroke-width="0.5"/>
<path d="M81.6244 55.3896C83.1898 53.9475 85.3882 53.7025 86.5619 54.9951C87.1607 55.6542 87.3487 56.6109 87.1244 57.5996C88.041 57.4717 88.8974 57.7049 89.4984 58.2754L89.6283 58.4082L89.6302 58.4102L89.6605 58.4443L89.7621 58.5645C90.2508 59.1797 90.403 59.9931 90.2689 60.8164C90.1258 61.6948 89.6564 62.5978 88.9008 63.3242L88.8988 63.3262V63.3271H88.8978L88.8949 63.3301H88.8939V63.3311H88.8929V63.332H88.892V63.333H88.891V63.334H88.89V63.335L88.889 63.3359H88.8881V63.3369H88.8871V63.3379H88.8861V63.3389H88.8851V63.3398H88.8842V63.3408H88.8832V63.3418H88.8822L88.8812 63.3428L88.8802 63.3438L88.8793 63.3447L88.8783 63.3457H88.8773V63.3467H88.8763V63.3477H88.8754V63.3486H88.8744V63.3496H88.8734V63.3506L88.8724 63.3516H88.8715V63.3525H88.8705V63.3535H88.8695V63.3545H88.8685V63.3555H88.8676V63.3564H88.8666V63.3574H88.8656L88.8617 63.3613H88.8607V63.3623H88.8597V63.3633H88.8588V63.3643H88.8578V63.3652L88.8568 63.3662H88.8558V63.3672H88.8549V63.3682H88.8539V63.3691H88.8529V63.3701H88.8519V63.3711H88.851V63.3721H88.85V63.373H88.849V63.374H88.848L88.8461 63.376H88.8451V63.377H88.8441V63.3779H88.8431V63.3789H88.8422V63.3799H88.8412V63.3809H88.8402V63.3818H88.8392V63.3828L88.8383 63.3838H88.8373V63.3848H88.8363V63.3857H88.8353V63.3867H88.8344V63.3877H88.8334V63.3887H88.8324L88.8314 63.3896L88.8304 63.3906L88.8295 63.3916L88.8285 63.3926H88.8275V63.3936H88.8265V63.3945L88.8256 63.3955L88.8246 63.3965L80.8969 70.7451C80.8785 70.7621 80.8693 70.7799 80.8666 70.791L81.9916 72.043L82.0443 72.1084C82.1556 72.2683 82.1841 72.4657 82.1537 72.6514C82.1191 72.8624 82.0068 73.0715 81.8344 73.2383L81.8353 73.2393C81.8307 73.2439 81.8263 73.2475 81.8246 73.249L81.8226 73.251C81.8232 73.2505 81.8258 73.249 81.8285 73.2461V73.2471L81.8148 73.2598C81.4675 73.5791 80.9207 73.6798 80.601 73.3281L80.6 73.3271L79.4613 72.0596V72.0586C79.1697 71.7371 79.0806 71.2985 79.1508 70.8652C79.2212 70.4309 79.4519 69.9885 79.8197 69.6348C79.8283 69.6262 79.8422 69.6127 79.8588 69.5986L87.7865 62.249H87.7875C88.202 61.8668 88.4597 61.3896 88.5463 60.9336C88.6328 60.477 88.5463 60.0551 88.2943 59.7568V59.7559C88.2851 59.7453 88.2752 59.7352 88.266 59.7246V59.7236L88.2367 59.6904C87.7022 59.1022 86.6 59.1454 85.7299 59.9453L79.2006 66L79.1429 66.0537H79.142L79.1107 66.083L79.1088 66.0859C78.7613 66.4054 78.2126 66.5062 77.8929 66.1543C77.7386 65.9848 77.6971 65.7578 77.7318 65.5459C77.7665 65.3336 77.8789 65.1224 78.0531 64.9551L78.0541 64.9531L78.0697 64.9375L84.6927 58.7969H84.6937C85.1084 58.4139 85.3659 57.9365 85.4515 57.4805C85.5356 57.0325 85.4522 56.6188 85.2103 56.3223L85.1722 56.2812C84.6366 55.6913 83.5338 55.7352 82.6635 56.5381L82.6625 56.5371L73.8978 64.6631L73.8969 64.6641C73.5711 64.9635 73.0702 65.0708 72.7455 64.793L72.683 64.7324C72.5286 64.5629 72.4872 64.3359 72.5219 64.124C72.5564 63.9129 72.6676 63.703 72.8402 63.5361L72.8461 63.5283L72.8597 63.5166L81.6244 55.3906V55.3896Z" stroke="#BEBDCC" stroke-width="0.4"/>
<path d="M83.1559 57.0928C83.4817 56.7933 83.9843 56.686 84.3092 56.9639L84.3717 57.0254L84.3785 57.0332C84.3805 57.0354 84.3829 57.039 84.3854 57.042H84.3864C84.3878 57.0437 84.3888 57.0461 84.3903 57.0479C84.3931 57.0515 84.397 57.055 84.4 57.0596H84.399C84.5347 57.2321 84.5667 57.4516 84.528 57.6562C84.4879 57.8681 84.3716 58.0774 84.194 58.2412L84.1364 58.2939L77.7096 64.252L77.7076 64.2539C77.7028 64.2582 77.6975 64.2634 77.6901 64.2705C77.6844 64.2759 77.6763 64.282 77.6686 64.2891C77.2612 64.6803 77.0152 65.1611 76.941 65.6152C76.8669 66.0696 76.9661 66.4847 77.2281 66.7734C77.7623 67.363 78.8664 67.3196 79.7369 66.5166L86.2203 60.5068V60.5059C86.5675 60.1866 87.1154 60.0857 87.4352 60.4365H87.4342C87.4344 60.4367 87.4352 60.4375 87.4362 60.4385V60.4375L87.4391 60.4414C87.4404 60.4428 87.4422 60.4443 87.444 60.4463C87.4492 60.452 87.4567 60.461 87.4645 60.4727H87.4635C87.5991 60.6451 87.6311 60.8647 87.5924 61.0693C87.5523 61.2808 87.4356 61.4887 87.2584 61.6523L87.2594 61.6533L80.776 67.6641L80.775 67.665C79.2095 69.1069 77.0111 69.3522 75.8375 68.0596V68.0586C75.8163 68.0357 75.7976 68.0144 75.7819 67.9961L75.7809 67.9951C75.2341 67.347 75.0779 66.469 75.2448 65.5898C75.4117 64.7105 75.903 63.8153 76.6735 63.1055L83.1549 57.0938L83.1559 57.0928Z" stroke="#BEBDCC" stroke-width="0.4"/>
</g>
<defs>
<clipPath id="clip0_14957_10542">
<rect width="126.398" height="200" fill="white"/>
</clipPath>
</defs>
</svg>
