<svg width="32" height="32" viewBox="0 0 32 32" fill="none" xmlns="http://www.w3.org/2000/svg">
  <path d="M28 18V23.99C28 24.52 27.79 25.03 27.41 25.4C27.03 25.77 26.53 25.99 26 25.99H17C16.73 25.99 16.48 25.88 16.29 25.7C16.1 25.51 16 25.26 16 24.99C16 24.72 16.11 24.47 16.29 24.28C16.48 24.09 16.73 23.99 17 23.99H26V18H6V18.99C6 19.26 5.89 19.51 5.71 19.7C5.52 19.89 5.27 19.99 5 19.99C4.73 19.99 4.48 19.88 4.29 19.7C4.1 19.52 4 19.26 4 18.99V18C4 17.47 4.21 16.96 4.59 16.59C4.97 16.22 5.47 16 6 16H26C26.53 16 27.04 16.21 27.41 16.59C27.79 16.97 28 17.47 28 18ZM15.71 20.29C15.62 20.2 15.51 20.12 15.39 20.07C15.27 20.02 15.14 19.99 15.01 19.99C14.88 19.99 14.75 20.02 14.63 20.07C14.51 20.12 14.4 20.19 14.31 20.29L8.02 26.58L5.73 24.29C5.64 24.2 5.53 24.12 5.41 24.07C5.29 24.02 5.16 23.99 5.03 23.99C4.9 23.99 4.77 24.02 4.65 24.07C4.53 24.12 4.42 24.19 4.33 24.29C4.24 24.38 4.16 24.49 4.11 24.61C4.06 24.73 4.03 24.86 4.03 24.99C4.03 25.12 4.06 25.25 4.11 25.37C4.16 25.49 4.23 25.6 4.33 25.69L7.33 28.69C7.42 28.78 7.53 28.86 7.65 28.91C7.77 28.96 7.9 28.99 8.03 28.99C8.16 28.99 8.29 28.96 8.41 28.91C8.53 28.86 8.64 28.79 8.73 28.69L15.73 21.69C15.82 21.6 15.9 21.49 15.95 21.37C16 21.25 16.03 21.12 16.03 20.99C16.03 20.86 16 20.73 15.95 20.61C15.9 20.49 15.83 20.38 15.73 20.29H15.71Z" fill="currentColor"/>
  <path d="M26 4H6C5.47 4 4.96 4.21 4.59 4.59C4.21 4.96 4 5.47 4 6V12C4 12.53 4.21 13.04 4.59 13.41C4.97 13.79 5.47 14 6 14H26C26.53 14 27.04 13.79 27.41 13.41C27.79 13.03 28 12.53 28 12V6C28 5.47 27.79 4.96 27.41 4.59C27.03 4.21 26.53 4 26 4ZM26 12H6V6H26V12ZM24 9C24 9.3 23.91 9.59 23.75 9.83C23.59 10.08 23.35 10.27 23.08 10.38C22.81 10.49 22.5 10.52 22.21 10.47C21.92 10.41 21.65 10.27 21.44 10.06C21.23 9.85 21.09 9.58 21.03 9.29C20.97 9 21 8.7 21.12 8.42C21.23 8.15 21.43 7.91 21.67 7.75C21.92 7.59 22.21 7.5 22.5 7.5C22.9 7.5 23.28 7.66 23.56 7.94C23.84 8.22 24 8.6 24 9ZM24 21C24 21.3 23.91 21.59 23.75 21.83C23.59 22.08 23.35 22.27 23.08 22.38C22.81 22.49 22.5 22.52 22.21 22.47C21.92 22.41 21.65 22.27 21.44 22.06C21.23 21.85 21.09 21.58 21.03 21.29C20.97 21 21 20.7 21.12 20.42C21.23 20.15 21.43 19.91 21.67 19.75C21.92 19.59 22.21 19.5 22.5 19.5C22.9 19.5 23.28 19.66 23.56 19.94C23.84 20.22 24 20.6 24 21Z" fill="currentColor"/>
</svg>
