<svg width="12" height="13" viewBox="0 0 12 13" fill="none" xmlns="http://www.w3.org/2000/svg">
<path d="M9.35375 7.64625C9.40024 7.69269 9.43712 7.74783 9.46228 7.80853C9.48744 7.86923 9.50039 7.93429 9.50039 8C9.50039 8.06571 9.48744 8.13077 9.46228 8.19147C9.43712 8.25217 9.40024 8.30731 9.35375 8.35375L7.85375 9.85375C7.75993 9.94757 7.63268 10.0003 7.5 10.0003C7.36732 10.0003 7.24007 9.94757 7.14625 9.85375C7.05243 9.75993 6.99972 9.63268 6.99972 9.5C6.99972 9.36732 7.05243 9.24007 7.14625 9.14625L8.29313 8L7.14625 6.85375C7.05243 6.75993 6.99972 6.63268 6.99972 6.5C6.99972 6.36732 7.05243 6.24007 7.14625 6.14625C7.24007 6.05243 7.36732 5.99972 7.5 5.99972C7.63268 5.99972 7.75993 6.05243 7.85375 6.14625L9.35375 7.64625ZM4.85375 6.14625C4.80731 6.09976 4.75217 6.06288 4.69147 6.03772C4.63077 6.01256 4.56571 5.99961 4.5 5.99961C4.43429 5.99961 4.36923 6.01256 4.30853 6.03772C4.24783 6.06288 4.19269 6.09976 4.14625 6.14625L2.64625 7.64625C2.59976 7.69269 2.56288 7.74783 2.53772 7.80853C2.51256 7.86923 2.49961 7.93429 2.49961 8C2.49961 8.06571 2.51256 8.13077 2.53772 8.19147C2.56288 8.25217 2.59976 8.30731 2.64625 8.35375L4.14625 9.85375C4.1927 9.90021 4.24786 9.93705 4.30855 9.9622C4.36925 9.98734 4.4343 10.0003 4.5 10.0003C4.5657 10.0003 4.63075 9.98734 4.69145 9.9622C4.75214 9.93705 4.8073 9.90021 4.85375 9.85375C4.90021 9.80729 4.93706 9.75214 4.9622 9.69145C4.98734 9.63075 5.00028 9.5657 5.00028 9.5C5.00028 9.4343 4.98734 9.36925 4.9622 9.30855C4.93706 9.24786 4.90021 9.19271 4.85375 9.14625L3.70687 8L4.85375 6.85375C4.90024 6.80731 4.93712 6.75217 4.96228 6.69147C4.98744 6.63077 5.00039 6.56571 5.00039 6.5C5.00039 6.43429 4.98744 6.36923 4.96228 6.30853C4.93712 6.24783 4.90024 6.19269 4.85375 6.14625ZM11.5 4V12C11.5 12.2652 11.3946 12.5196 11.2071 12.7071C11.0196 12.8946 10.7652 13 10.5 13H1.5C1.23478 13 0.98043 12.8946 0.792893 12.7071C0.605357 12.5196 0.5 12.2652 0.5 12V1C0.5 0.734784 0.605357 0.48043 0.792893 0.292893C0.98043 0.105357 1.23478 1.54599e-07 1.5 1.54599e-07H7.5C7.56568 -5.14929e-05 7.63073 0.0128379 7.69143 0.037932C7.75212 0.063026 7.80728 0.099833 7.85375 0.14625L11.3538 3.64625C11.4002 3.69272 11.437 3.74788 11.4621 3.80858C11.4872 3.86927 11.5001 3.93432 11.5 4ZM8 3.5H9.79313L8 1.70688V3.5ZM10.5 12V4.5H7.5C7.36739 4.5 7.24021 4.44732 7.14645 4.35355C7.05268 4.25979 7 4.13261 7 4V1H1.5V12H10.5Z" fill="#7F7999"/>
</svg>
