<svg width="16" height="17" viewBox="0 0 16 17" fill="none" xmlns="http://www.w3.org/2000/svg">
<path fill-rule="evenodd" clip-rule="evenodd" d="M8.00662 0.5C3.57917 0.5 0 4.16665 0 8.7028C0 12.3288 2.29329 15.3981 5.4747 16.4844C5.87246 16.5661 6.01816 16.3079 6.01816 16.0908C6.01816 15.9006 6.00505 15.2488 6.00505 14.5696C3.7778 15.0586 3.31399 13.5918 3.31399 13.5918C2.95606 12.6411 2.42572 12.3968 2.42572 12.3968C1.69674 11.8943 2.47882 11.8943 2.47882 11.8943C3.28744 11.9486 3.71175 12.7363 3.71175 12.7363C4.42745 13.9856 5.58074 13.6326 6.04471 13.4153C6.11092 12.8856 6.32315 12.5189 6.5485 12.3153C4.77211 12.1251 2.90313 11.419 2.90313 8.26813C2.90313 7.3718 3.22107 6.63847 3.72486 6.06814C3.64538 5.86448 3.36693 5.02231 3.80451 3.89515C3.80451 3.89515 4.48055 3.67782 6.00488 4.73715C6.6575 4.55759 7.33054 4.46625 8.00662 4.46548C8.68266 4.46548 9.37181 4.56065 10.0082 4.73715C11.5327 3.67782 12.2087 3.89515 12.2087 3.89515C12.6463 5.02231 12.3677 5.86448 12.2882 6.06814C12.8053 6.63847 13.1101 7.3718 13.1101 8.26813C13.1101 11.419 11.2411 12.1115 9.45146 12.3153C9.74318 12.5733 9.99492 13.0621 9.99492 13.8363C9.99492 14.9363 9.98181 15.8191 9.98181 16.0906C9.98181 16.3079 10.1277 16.5661 10.5253 16.4846C13.7067 15.3979 16 12.3288 16 8.7028C16.0131 4.16665 12.4208 0.5 8.00662 0.5Z" fill="black"/>
</svg>
