<svg width="40" height="40" viewBox="0 0 40 40" fill="none" xmlns="http://www.w3.org/2000/svg">
  <path d="M39.9999 19.9999C39.9999 31.0456 31.0455 40 19.9998 40C8.95408 40 -0.00012207 31.0456 -0.00012207 19.9999C-0.00012207 8.95421 8.9543 0 20 0C31.0457 0 40.0001 8.95442 40.0001 20.0001" fill="white" />
  <path d="M21.6408 15.4783C19.1157 15.4783 16.9007 16.3918 15.2806 17.9007V6.00433C15.2806 5.70454 14.956 5.5172 14.6963 5.66699L11.8282 7.32298C11.7644 7.35968 11.7253 7.42753 11.7253 7.50136V32.6894C11.7253 32.9045 11.8997 33.079 12.1147 33.079H14.8912C15.106 33.079 15.2806 32.9045 15.2806 32.6894V31.0164C16.9007 32.5251 19.1157 33.4388 21.6408 33.4388C26.8853 33.4388 30.8007 29.5055 30.8007 24.4585C30.8007 19.4116 26.8855 15.4783 21.6408 15.4783ZM21.6408 30.0982C18.3901 30.0982 16.0372 27.6376 16.0372 24.4585C16.0372 21.2795 18.3901 18.8187 21.6408 18.8187C24.8915 18.8187 27.2444 21.2795 27.2444 24.4585C27.2444 27.6376 24.8915 30.0982 21.6408 30.0982Z" fill="#072B55" />
  <path d="M32.8067 13.3685C32.8067 14.5873 31.8185 15.5754 30.5997 15.5754C29.381 15.5754 28.3928 14.5873 28.3928 13.3685C28.3928 12.1497 29.381 11.1616 30.5997 11.1616C31.8185 11.1616 32.8067 12.1497 32.8067 13.3685Z" fill="#FF7C66" />
</svg>
