<svg width="22" height="23" viewBox="0 0 22 23" fill="none" xmlns="http://www.w3.org/2000/svg">
  <g clip-path="url(#clip0_78_1876)">
    <path
      d="M10.5916 1.47131C11.5063 0.638981 12.7698 0.38072 13.946 0.615845C15.1226 0.85111 16.19 1.57587 16.7166 2.68225C16.7673 2.78869 16.8198 2.95426 16.8728 3.15686C16.925 3.35658 16.9749 3.57865 17.0242 3.79456C17.0728 4.00771 17.1212 4.21703 17.1697 4.38147C17.1938 4.46346 17.2197 4.54077 17.2478 4.60413C17.2619 4.63586 17.2783 4.66837 17.2976 4.69788C17.3157 4.72557 17.3432 4.76212 17.3835 4.79065L17.3865 4.79163C17.4361 4.82561 17.4982 4.84577 17.5457 4.85901C17.5989 4.87385 17.6615 4.88739 17.7283 4.90002C17.8609 4.92514 18.0302 4.95064 18.2029 4.97913C18.5598 5.038 18.9423 5.11133 19.2087 5.22522C20.6174 5.82431 21.3466 7.06183 21.4529 8.40295C21.5595 9.74876 21.0371 11.1886 19.948 12.1627L19.9421 12.1676L12.7478 19.1451L12.6189 19.2701L12.7283 19.4108C12.8973 19.6293 13.1411 19.8486 13.3796 20.0602C13.6244 20.2773 13.8698 20.491 14.0691 20.7145C14.2691 20.9388 14.4047 21.1539 14.4509 21.3649C14.4946 21.5643 14.4625 21.782 14.2791 22.0338C14.0831 22.3024 13.8187 22.4088 13.5339 22.4059C13.2416 22.4028 12.9254 22.2836 12.6609 22.0895C12.663 22.091 12.6431 22.0737 12.5916 22.024C12.5462 21.9803 12.4856 21.9206 12.4148 21.8502C12.2731 21.7094 12.092 21.5262 11.9119 21.3424C11.7317 21.1586 11.5525 20.9745 11.4158 20.8307C11.3474 20.7587 11.2902 20.6976 11.2488 20.652C11.228 20.6291 11.212 20.6112 11.2009 20.5983C11.1973 20.594 11.1948 20.5906 11.1931 20.5885C10.8606 20.0382 10.7682 19.203 10.9607 18.5895C11.2336 18.1014 11.859 17.4113 12.6755 16.6071C13.4949 15.8001 14.4844 14.8992 15.4548 14.0026C16.423 13.108 17.3727 12.2169 18.1013 11.4371C18.4655 11.0474 18.7787 10.681 19.0125 10.3531C19.2425 10.0304 19.4105 9.72458 19.4617 9.45764C19.6592 8.42227 19.3758 7.58689 18.7585 7.13049C18.1441 6.67619 17.2577 6.64071 16.3416 7.07678L16.3308 7.08264L16.321 7.0885C15.8751 7.36853 15.2701 7.94305 14.6033 8.63342C13.9317 9.32864 13.1795 10.1603 12.4392 10.9684C11.697 11.7786 10.9662 12.565 10.3308 13.1764C10.0132 13.4821 9.72245 13.741 9.46851 13.9362C9.2104 14.1346 9.00599 14.2552 8.85913 14.3004C8.24153 14.4892 7.62884 13.9781 7.61987 13.3356L7.62671 13.2057C7.62948 13.1807 7.64515 13.1269 7.69409 13.0387C7.74111 12.954 7.81054 12.8514 7.90112 12.7321C8.0822 12.4935 8.33923 12.2015 8.6521 11.8707C9.27726 11.2098 10.1116 10.4087 10.9744 9.59338C11.8352 8.77994 12.7244 7.95166 13.4539 7.2428C14.177 6.54005 14.7641 5.93385 15.0046 5.56897L15.0105 5.56116L15.0144 5.55237C15.3145 4.98433 15.3603 4.42976 15.2175 3.94592C15.0755 3.46494 14.7519 3.0683 14.3406 2.80432C13.5179 2.27662 12.3198 2.2658 11.4382 3.17249L2.40308 12.11C2.0027 12.2809 1.61043 12.1118 1.3689 11.7799C1.12086 11.4391 1.07356 10.9824 1.33765 10.6461L10.5916 1.47131Z"
      fill="#4F33CC"
      stroke="#4F33CC"
      stroke-width="0.4"
    />
    <path
      d="M12.5288 3.89612C13.0977 3.71799 13.4547 3.84651 13.6362 4.07385C13.8285 4.31506 13.8859 4.74116 13.6919 5.27405C12.8034 6.39077 11.53 7.50069 10.2583 8.62854C8.9865 9.75647 7.71666 10.9045 6.896 12.0739C6.11911 13.1817 6.23185 14.2986 6.86279 14.9879C7.48986 15.6728 8.58448 15.8847 9.65576 15.2809L9.67822 15.2682L9.69678 15.2496L16.8843 8.23303C17.401 8.12105 17.7845 8.20322 17.9917 8.38928C18.1909 8.56843 18.2921 8.90632 18.0884 9.45862H18.0874C18.0113 9.6656 17.8789 9.80586 17.7202 9.93713C17.6317 10.0103 17.5629 10.0594 17.4683 10.1354C17.3837 10.2033 17.2958 10.2803 17.2212 10.3717L17.106 10.5123C16.4383 11.308 15.0289 12.8205 13.5767 14.2291C12.8061 14.9766 12.0266 15.6919 11.3433 16.2545C10.6515 16.824 10.0817 17.2165 9.72412 17.3434C7.60463 18.0946 5.80984 17.102 4.95068 15.5358C4.09007 13.9667 4.17947 11.8391 5.84424 10.3326L5.84912 10.3287L12.5288 3.89612Z"
      fill="#4F33CC"
      stroke="#4F33CC"
      stroke-width="0.4"
    />
  </g>
  <defs>
    <clipPath id="clip0_78_1876">
      <rect width="20.7059" height="22.2745" fill="white" transform="translate(0.960693 0.333252)" />
    </clipPath>
  </defs>
</svg>
